<svg xmlns="http://www.w3.org/2000/svg" width="44" height="48" viewBox="0 0 44 48" fill="none"><rect width="44" height="48" rx="6" fill="#FE7A80"></rect><path d="M17.1966 36C22.9353 36 26.3932 31.1321 26.3932 24C26.3932 16.8679 22.9353 12 17.1966 12C11.4579 12 8 16.8302 8 24C8 31.1698 11.4579 36 17.1966 36ZM17.1966 33.7736C13.8122 33.7736 12.2304 30.1509 12.2304 24C12.2304 17.8491 13.8122 14.2264 17.1966 14.2264C20.5441 14.2264 22.126 17.8113 22.126 24C22.126 30.1887 20.5441 33.7736 17.1966 33.7736Z" fill="white"></path><path d="M34.9768 35.6981C36.485 35.6981 37 35.1698 37 34.5283V13.5849C37 12.7547 36.6689 12.2642 36.0436 12.2642C33.5053 12.2642 28.2816 15.0566 28.2816 16.3396C28.2816 16.9057 28.6127 17.0943 29.0542 17.0943C29.7899 17.0943 32.0706 16 32.696 16C32.9903 16 33.1742 16.1509 33.1742 16.6415V24.6792C33.211 29.6981 32.9903 33.8868 32.9903 34.5283C32.9903 35.1698 33.4685 35.6981 34.9768 35.6981Z" fill="white"></path></svg>