<svg xmlns="http://www.w3.org/2000/svg" width="81" height="66" viewBox="0 0 81 66" fill="none"><path d="M25.5857 65.09C41.5511 65.09 51.1713 51.8877 51.1713 32.545C51.1713 13.2022 41.5511 0 25.5857 0C9.62021 0 0 13.0999 0 32.545C0 51.9901 9.62021 65.09 25.5857 65.09ZM25.5857 59.0517C16.1701 59.0517 11.7694 49.2268 11.7694 32.545C11.7694 15.8631 16.1701 6.03822 25.5857 6.03822C34.8989 6.03822 39.2996 15.7608 39.2996 32.545C39.2996 49.3292 34.8989 59.0517 25.5857 59.0517Z" fill="#623937"></path><path d="M75.0516 64.2712C79.2476 64.2712 80.6804 62.8384 80.6804 61.0986V4.29839C80.6804 2.04685 79.7593 0.716402 78.0195 0.716402C70.9579 0.716402 56.4252 8.28976 56.4252 11.7694C56.4252 13.3046 57.3463 13.8163 58.5744 13.8163C60.6213 13.8163 66.9665 10.8483 68.7063 10.8483C69.5251 10.8483 70.0368 11.2577 70.0368 12.5882V34.3871C70.1391 47.9987 69.5251 59.3588 69.5251 61.0986C69.5251 62.8384 70.8555 64.2712 75.0516 64.2712Z" fill="#623937"></path></svg>