<svg xmlns="http://www.w3.org/2000/svg" width="104" height="65" viewBox="0 0 104 65" fill="none"><path d="M25.1707 64.0341C40.8772 64.0341 50.3413 51.0461 50.3413 32.0171C50.3413 12.9881 40.8772 0 25.1707 0C9.46417 0 0 12.8874 0 32.0171C0 51.1468 9.46417 64.0341 25.1707 64.0341ZM25.1707 58.0939C15.9079 58.0939 11.5785 48.4283 11.5785 32.0171C11.5785 15.6058 15.9079 5.94028 25.1707 5.94028C34.3328 5.94028 38.6621 15.5051 38.6621 32.0171C38.6621 48.529 34.3328 58.0939 25.1707 58.0939Z" fill="#623937"></path><path d="M92.9332 63.4301C100.082 63.4301 103.505 59.9062 103.505 54.9727C103.505 52.4556 102.397 49.7372 100.585 49.7372C98.2694 49.7372 98.8735 53.7645 91.5237 53.7645L67.8632 53.8652C67.2591 53.8652 66.9571 53.5632 66.9571 53.3618C66.9571 52.9591 67.0578 52.7577 67.5612 52.0529C71.5885 44.3004 101.189 36.0444 101.189 18.3242C101.189 7.45051 93.1346 0.100681 79.7438 0.100681C65.2455 0.100681 57.6943 10.0683 57.6943 13.2901C57.6943 15.9079 60.8155 19.8345 62.9298 19.8345C67.2591 19.8345 68.568 6.34301 79.3411 6.34301C84.4759 6.34301 89.6107 9.46417 89.6107 17.5188C89.6107 34.6348 57.0902 40.8771 57.0902 58.4966C57.0902 61.5171 58.9025 62.7253 60.7148 62.7253C63.4332 62.7253 65.4469 61.3157 68.8701 61.3157C72.9981 61.3157 86.3888 63.4301 92.9332 63.4301Z" fill="#623937"></path></svg>