<svg xmlns="http://www.w3.org/2000/svg" width="44" height="48" viewBox="0 0 44 48" fill="none"><rect width="44" height="48" rx="6" fill="#FE7A80"></rect><path d="M13.8345 34C18.7232 34 21.669 29.9434 21.669 24C21.669 18.0566 18.7232 14 13.8345 14C8.94577 14 6 18.0252 6 24C6 29.9748 8.94577 34 13.8345 34ZM13.8345 32.1447C10.9514 32.1447 9.60387 29.1258 9.60387 24C9.60387 18.8742 10.9514 15.8553 13.8345 15.8553C16.6863 15.8553 18.0338 18.8428 18.0338 24C18.0338 29.1572 16.6863 32.1447 13.8345 32.1447Z" fill="white"></path><path d="M30.3849 34C35.1169 34 38 31.7044 38 28.717C38 25.3836 35.2423 24.3459 33.644 23.9371C33.55 23.9057 33.3306 23.8742 33.3306 23.717C33.3306 23.5283 33.5813 23.4969 33.7067 23.4654C34.7095 23.1509 37.2479 21.956 37.2479 19.1258C37.2479 16.2327 34.8035 14.0314 30.3222 14.0314C26.0289 14.0314 23.7099 16.4843 23.7099 17.4277C23.7099 18.2453 24.5873 19.4717 25.2768 19.4717C26.499 19.4717 26.9064 15.9182 30.3222 15.9182C31.8578 15.9182 33.6754 16.8931 33.6754 19.283C33.6754 21.7358 31.513 22.8679 29.5387 22.8679C29.0373 22.8679 28.5359 22.8365 28.1285 22.8365C27.7838 22.8365 27.5645 23.0566 27.5645 23.8113C27.5645 24.5346 27.8152 24.7547 28.0972 24.7547C28.4733 24.7547 29.0373 24.7233 29.5387 24.7233C32.8919 24.7233 34.3021 26.2327 34.3021 28.4654C34.3021 30.6981 32.5785 32.0818 30.3849 32.0818C26.4676 32.0818 26.0289 28.3396 24.7754 28.3396C24.0233 28.3396 23.2085 29.6604 23.2085 30.478C23.2085 31.4528 25.7468 34 30.3849 34Z" fill="white"></path></svg>