<svg xmlns="http://www.w3.org/2000/svg" width="105" height="66" viewBox="0 0 105 66" fill="none"><path d="M25.5756 65.0643C41.5348 65.0643 51.1512 51.8673 51.1512 32.5322C51.1512 13.197 41.5348 0 25.5756 0C9.61642 0 0 13.0947 0 32.5322C0 51.9696 9.61642 65.0643 25.5756 65.0643ZM25.5756 59.0285C16.1638 59.0285 11.7648 49.2075 11.7648 32.5322C11.7648 15.8569 16.1638 6.03584 25.5756 6.03584C34.8851 6.03584 39.2841 15.7546 39.2841 32.5322C39.2841 49.3098 34.8851 59.0285 25.5756 59.0285Z" fill="#623937"></path><path d="M79.6041 65.0643C95.0517 65.0643 104.464 57.5963 104.464 47.8775C104.464 37.0335 95.4609 33.6575 90.2435 32.3276C89.9366 32.2253 89.2205 32.123 89.2205 31.6114C89.2205 30.9976 90.0389 30.8953 90.4481 30.793C93.7218 29.77 102.008 25.8825 102.008 16.6753C102.008 7.26347 94.0287 0.102301 79.3994 0.102301C65.384 0.102301 57.8136 8.08189 57.8136 11.151C57.8136 13.8108 60.6781 17.8006 62.9288 17.8006C66.9186 17.8006 68.2485 6.24045 79.3994 6.24045C84.4123 6.24045 90.3458 9.41182 90.3458 17.1868C90.3458 25.1664 83.2869 28.8493 76.8419 28.8493C75.2051 28.8493 73.5682 28.747 72.2383 28.747C71.113 28.747 70.3968 29.4631 70.3968 31.9184C70.3968 34.2713 71.2153 34.9874 72.136 34.9874C73.3636 34.9874 75.2051 34.8851 76.8419 34.8851C87.7882 34.8851 92.3919 39.7956 92.3919 47.0591C92.3919 54.3226 86.7652 58.8239 79.6041 58.8239C66.8163 58.8239 65.384 46.6499 61.2919 46.6499C58.8367 46.6499 56.1768 50.9466 56.1768 53.6065C56.1768 56.7778 64.4633 65.0643 79.6041 65.0643Z" fill="#623937"></path></svg>