<svg xmlns="http://www.w3.org/2000/svg" width="349" height="349" viewBox="0 0 349 349" fill="none"><circle cx="174.5" cy="174.5" r="174.5" fill="url(#paint0_linear_328_29)"></circle><path d="M129.261 254.678C116.312 254.627 105.17 251.44 95.8346 245.116C86.5495 238.793 79.3975 229.633 74.3786 217.638C69.4098 205.643 66.9506 191.213 67.0008 174.349C67.0008 157.536 69.4851 143.207 74.4539 131.362C79.4728 119.518 86.6248 110.509 95.9098 104.335C105.245 98.1117 116.362 95 129.261 95C142.159 95 153.251 98.1117 162.536 104.335C171.871 110.559 179.049 119.593 184.068 131.438C189.086 143.232 191.571 157.536 191.521 174.349C191.521 191.263 189.011 205.718 183.992 217.713C179.023 229.708 171.897 238.868 162.612 245.192C153.327 251.516 142.21 254.678 129.261 254.678ZM129.261 227.651C138.094 227.651 145.146 223.209 150.416 214.325C155.685 205.442 158.295 192.116 158.245 174.349C158.245 162.655 157.041 152.919 154.631 145.139C152.273 137.36 148.91 131.513 144.543 127.598C140.227 123.683 135.133 121.726 129.261 121.726C120.478 121.726 113.451 126.117 108.181 134.901C102.911 143.684 100.251 156.833 100.201 174.349C100.201 186.194 101.38 196.081 103.739 204.011C106.148 211.891 109.536 217.813 113.903 221.778C118.269 225.693 123.389 227.651 129.261 227.651Z" fill="white"></path><path d="M281.843 97.108V251.29H249.245V128.05H248.341L213.033 150.183V121.274L251.202 97.108H281.843Z" fill="white"></path><defs><linearGradient id="paint0_linear_328_29" x1="159.854" y1="-24.8005" x2="1.07546" y2="353.893" gradientUnits="userSpaceOnUse"><stop stop-color="#FFC8C5"></stop><stop offset="1" stop-color="#FE7A80"></stop></linearGradient></defs></svg>