<svg xmlns="http://www.w3.org/2000/svg" width="349" height="349" viewBox="0 0 349 349" fill="none"><circle cx="174.5" cy="174.5" r="174.5" fill="url(#paint0_linear_328_28)"></circle><path d="M108.261 254.678C95.3118 254.627 84.1698 251.44 74.8346 245.116C65.5495 238.793 58.3975 229.633 53.3786 217.638C48.4098 205.643 45.9506 191.213 46.0008 174.349C46.0008 157.536 48.4851 143.207 53.4539 131.362C58.4728 119.518 65.6248 110.509 74.9098 104.335C84.2451 98.1117 95.362 95 108.261 95C121.159 95 132.251 98.1117 141.536 104.335C150.871 110.559 158.049 119.593 163.068 131.438C168.086 143.232 170.571 157.536 170.521 174.349C170.521 191.263 168.011 205.718 162.992 217.713C158.023 229.708 150.897 238.868 141.612 245.192C132.327 251.516 121.21 254.678 108.261 254.678ZM108.261 227.651C117.094 227.651 124.146 223.209 129.416 214.325C134.685 205.442 137.295 192.116 137.245 174.349C137.245 162.655 136.041 152.919 133.631 145.139C131.273 137.36 127.91 131.513 123.543 127.598C119.227 123.683 114.133 121.726 108.261 121.726C99.4776 121.726 92.451 126.117 87.1812 134.901C81.9113 143.684 79.2512 156.833 79.201 174.349C79.201 186.194 80.3805 196.081 82.7394 204.011C85.1485 211.891 88.5363 217.813 92.9027 221.778C97.2692 225.693 102.389 227.651 108.261 227.651Z" fill="white"></path><path d="M193.765 251.29V227.801L248.647 176.984C253.314 172.467 257.229 168.402 260.391 164.788C263.603 161.175 266.037 157.636 267.694 154.173C269.35 150.66 270.178 146.871 270.178 142.805C270.178 138.288 269.149 134.399 267.091 131.136C265.034 127.824 262.223 125.289 258.66 123.533C255.096 121.726 251.056 120.822 246.539 120.822C241.821 120.822 237.705 121.776 234.192 123.683C230.679 125.59 227.969 128.326 226.061 131.889C224.154 135.453 223.201 139.694 223.201 144.612H192.259C192.259 134.524 194.543 125.766 199.11 118.338C203.677 110.91 210.076 105.163 218.307 101.098C226.538 97.0327 236.024 95 246.765 95C257.806 95 267.418 96.9574 275.598 100.872C283.829 104.737 290.229 110.107 294.796 116.983C299.363 123.859 301.647 131.739 301.647 140.622C301.647 146.444 300.492 152.191 298.184 157.862C295.925 163.534 291.885 169.832 286.063 176.759C280.241 183.634 272.035 191.891 261.445 201.527L238.935 223.585V224.639H303.679V251.29H193.765Z" fill="white"></path><defs><linearGradient id="paint0_linear_328_28" x1="159.854" y1="-24.8005" x2="1.07546" y2="353.893" gradientUnits="userSpaceOnUse"><stop stop-color="#FFC8C5"></stop><stop offset="1" stop-color="#FE7A80"></stop></linearGradient></defs></svg>