<svg xmlns="http://www.w3.org/2000/svg" width="349" height="349" viewBox="0 0 349 349" fill="none"><circle cx="174.5" cy="174.5" r="174.5" fill="url(#paint0_linear_328_26)"></circle><path d="M102.261 254.678C89.3118 254.627 78.1698 251.44 68.8346 245.116C59.5495 238.793 52.3975 229.633 47.3786 217.638C42.4098 205.643 39.9506 191.213 40.0008 174.349C40.0008 157.536 42.4851 143.207 47.4539 131.362C52.4728 119.518 59.6248 110.509 68.9098 104.335C78.2451 98.1117 89.362 95 102.261 95C115.159 95 126.251 98.1117 135.536 104.335C144.871 110.559 152.049 119.593 157.068 131.438C162.086 143.232 164.571 157.536 164.521 174.349C164.521 191.263 162.011 205.718 156.992 217.713C152.023 229.708 144.897 238.868 135.612 245.192C126.327 251.516 115.21 254.678 102.261 254.678ZM102.261 227.651C111.094 227.651 118.146 223.209 123.416 214.325C128.685 205.442 131.295 192.116 131.245 174.349C131.245 162.655 130.041 152.919 127.631 145.139C125.273 137.36 121.91 131.513 117.543 127.598C113.227 123.683 108.133 121.726 102.261 121.726C93.4776 121.726 86.451 126.117 81.1812 134.901C75.9113 143.684 73.2512 156.833 73.201 174.349C73.201 186.194 74.3805 196.081 76.7394 204.011C79.1485 211.891 82.5363 217.813 86.9027 221.778C91.2692 225.693 96.3885 227.651 102.261 227.651Z" fill="white"></path><path d="M185.431 224.188V198.516L249.799 97.108H271.932V132.642H258.833L218.255 196.859V198.064H309.725V224.188H185.431ZM259.435 251.29V216.358L260.037 204.99V97.108H290.603V251.29H259.435Z" fill="white"></path><defs><linearGradient id="paint0_linear_328_26" x1="159.854" y1="-24.8005" x2="1.07546" y2="353.893" gradientUnits="userSpaceOnUse"><stop stop-color="#FFC8C5"></stop><stop offset="1" stop-color="#FE7A80"></stop></linearGradient></defs></svg>