<svg xmlns="http://www.w3.org/2000/svg" width="349" height="349" viewBox="0 0 349 349" fill="none"><circle cx="174.5" cy="174.5" r="174.5" fill="url(#paint0_linear_328_33)"></circle><path d="M106.261 254.678C93.3118 254.627 82.1698 251.44 72.8346 245.116C63.5495 238.793 56.3975 229.633 51.3786 217.638C46.4098 205.643 43.9506 191.213 44.0008 174.349C44.0008 157.536 46.4851 143.207 51.4539 131.362C56.4728 119.518 63.6248 110.509 72.9098 104.335C82.2451 98.1117 93.362 95 106.261 95C119.159 95 130.251 98.1117 139.536 104.335C148.871 110.559 156.049 119.593 161.068 131.438C166.086 143.232 168.571 157.536 168.521 174.349C168.521 191.263 166.011 205.718 160.992 217.713C156.023 229.708 148.897 238.868 139.612 245.192C130.327 251.516 119.21 254.678 106.261 254.678ZM106.261 227.651C115.094 227.651 122.146 223.209 127.416 214.325C132.685 205.442 135.295 192.116 135.245 174.349C135.245 162.655 134.041 152.919 131.631 145.139C129.273 137.36 125.91 131.513 121.543 127.598C117.227 123.683 112.133 121.726 106.261 121.726C97.4776 121.726 90.451 126.117 85.1812 134.901C79.9113 143.684 77.2512 156.833 77.201 174.349C77.201 186.194 78.3805 196.081 80.7394 204.011C83.1485 211.891 86.5363 217.813 90.9027 221.778C95.2692 225.693 100.389 227.651 106.261 227.651Z" fill="white"></path><path d="M248.077 253.398C237.437 253.398 227.951 251.44 219.62 247.526C211.338 243.611 204.764 238.215 199.895 231.339C195.027 224.464 192.492 216.584 192.292 207.7H223.911C224.262 213.673 226.772 218.516 231.439 222.23C236.107 225.944 241.653 227.801 248.077 227.801C253.196 227.801 257.713 226.672 261.628 224.413C265.593 222.105 268.68 218.918 270.888 214.852C273.147 210.737 274.276 206.019 274.276 200.699C274.276 195.278 273.122 190.51 270.813 186.395C268.554 182.279 265.418 179.067 261.402 176.759C257.387 174.45 252.795 173.27 247.625 173.22C243.108 173.22 238.717 174.149 234.451 176.006C230.235 177.863 226.947 180.397 224.588 183.609L195.604 178.415L202.907 97.108H297.162V123.759H229.783L225.793 162.379H226.696C229.407 158.565 233.497 155.403 238.968 152.893C244.438 150.384 250.561 149.129 257.337 149.129C266.622 149.129 274.903 151.313 282.181 155.679C289.458 160.045 295.205 166.043 299.421 173.672C303.637 181.25 305.72 189.983 305.669 199.871C305.72 210.26 303.311 219.495 298.442 227.575C293.624 235.606 286.874 241.929 278.191 246.547C269.558 251.114 259.52 253.398 248.077 253.398Z" fill="white"></path><defs><linearGradient id="paint0_linear_328_33" x1="159.854" y1="-24.8005" x2="1.07546" y2="353.893" gradientUnits="userSpaceOnUse"><stop stop-color="#FFC8C5"></stop><stop offset="1" stop-color="#FE7A80"></stop></linearGradient></defs></svg>