<svg xmlns="http://www.w3.org/2000/svg" width="349" height="349" viewBox="0 0 349 349" fill="none"><circle cx="174.5" cy="174.5" r="174.5" fill="url(#paint0_linear_328_32)"></circle><path d="M104.261 254.678C91.3118 254.627 80.1698 251.44 70.8346 245.116C61.5495 238.793 54.3975 229.633 49.3786 217.638C44.4098 205.643 41.9506 191.213 42.0008 174.349C42.0008 157.536 44.4851 143.207 49.4539 131.362C54.4728 119.518 61.6248 110.509 70.9098 104.335C80.2451 98.1117 91.362 95 104.261 95C117.159 95 128.251 98.1117 137.536 104.335C146.871 110.559 154.049 119.593 159.068 131.438C164.086 143.232 166.571 157.536 166.521 174.349C166.521 191.263 164.011 205.718 158.992 217.713C154.023 229.708 146.897 238.868 137.612 245.192C128.327 251.516 117.21 254.678 104.261 254.678ZM104.261 227.651C113.094 227.651 120.146 223.209 125.416 214.325C130.685 205.442 133.295 192.116 133.245 174.349C133.245 162.655 132.041 152.919 129.631 145.139C127.273 137.36 123.91 131.513 119.543 127.598C115.227 123.683 110.133 121.726 104.261 121.726C95.4776 121.726 88.451 126.117 83.1812 134.901C77.9113 143.684 75.2512 156.833 75.201 174.349C75.201 186.194 76.3805 196.081 78.7394 204.011C81.1485 211.891 84.5363 217.813 88.9027 221.778C93.2692 225.693 98.3885 227.651 104.261 227.651Z" fill="white"></path><path d="M248.938 253.398C241.008 253.348 233.354 252.018 225.976 249.408C218.649 246.798 212.074 242.557 206.252 236.685C200.43 230.812 195.812 223.033 192.4 213.347C189.037 203.66 187.356 191.765 187.356 177.662C187.406 164.713 188.886 153.144 191.797 142.956C194.758 132.717 198.974 124.035 204.445 116.908C209.966 109.781 216.566 104.36 224.245 100.646C231.924 96.8821 240.531 95 250.067 95C260.356 95 269.44 97.0076 277.32 101.023C285.2 104.988 291.524 110.383 296.292 117.209C301.11 124.035 304.021 131.688 305.025 140.17H272.878C271.624 134.8 268.989 130.584 264.973 127.523C260.958 124.461 255.99 122.93 250.067 122.93C240.029 122.93 232.4 127.297 227.181 136.03C222.011 144.763 219.376 156.633 219.276 171.639H220.33C222.639 167.072 225.75 163.182 229.665 159.97C233.63 156.708 238.122 154.223 243.141 152.517C248.21 150.76 253.555 149.882 259.177 149.882C268.311 149.882 276.442 152.04 283.569 156.357C290.695 160.623 296.317 166.495 300.432 173.973C304.548 181.451 306.606 190.009 306.606 199.645C306.606 210.084 304.171 219.369 299.303 227.5C294.485 235.631 287.734 242.005 279.052 246.622C270.419 251.189 260.381 253.448 248.938 253.398ZM248.787 227.801C253.806 227.801 258.298 226.597 262.263 224.188C266.228 221.778 269.34 218.516 271.598 214.401C273.857 210.285 274.986 205.668 274.986 200.548C274.986 195.429 273.857 190.837 271.598 186.771C269.39 182.706 266.329 179.469 262.414 177.06C258.499 174.651 254.032 173.446 249.013 173.446C245.249 173.446 241.761 174.149 238.549 175.554C235.387 176.959 232.601 178.917 230.192 181.426C227.833 183.936 225.976 186.847 224.621 190.159C223.266 193.421 222.588 196.91 222.588 200.624C222.588 205.592 223.718 210.134 225.976 214.25C228.285 218.366 231.397 221.653 235.311 224.112C239.276 226.571 243.768 227.801 248.787 227.801Z" fill="white"></path><defs><linearGradient id="paint0_linear_328_32" x1="159.854" y1="-24.8005" x2="1.07546" y2="353.893" gradientUnits="userSpaceOnUse"><stop stop-color="#FFC8C5"></stop><stop offset="1" stop-color="#FE7A80"></stop></linearGradient></defs></svg>