<svg xmlns="http://www.w3.org/2000/svg" width="349" height="349" viewBox="0 0 349 349" fill="none"><circle cx="174.5" cy="174.5" r="174.5" fill="url(#paint0_linear_328_31)"></circle><path d="M113.261 254.678C100.312 254.627 89.1698 251.44 79.8346 245.116C70.5495 238.793 63.3975 229.633 58.3786 217.638C53.4098 205.643 50.9506 191.213 51.0008 174.349C51.0008 157.536 53.4851 143.207 58.4539 131.362C63.4728 119.518 70.6248 110.509 79.9098 104.335C89.2451 98.1117 100.362 95 113.261 95C126.159 95 137.251 98.1117 146.536 104.335C155.871 110.559 163.049 119.593 168.068 131.438C173.086 143.232 175.571 157.536 175.521 174.349C175.521 191.263 173.011 205.718 167.992 217.713C163.023 229.708 155.897 238.868 146.612 245.192C137.327 251.516 126.21 254.678 113.261 254.678ZM113.261 227.651C122.094 227.651 129.146 223.209 134.416 214.325C139.685 205.442 142.295 192.116 142.245 174.349C142.245 162.655 141.041 152.919 138.631 145.139C136.273 137.36 132.91 131.513 128.543 127.598C124.227 123.683 119.133 121.726 113.261 121.726C104.478 121.726 97.451 126.117 92.1812 134.901C86.9113 143.684 84.2512 156.833 84.201 174.349C84.201 186.194 85.3805 196.081 87.7394 204.011C90.1485 211.891 93.5363 217.813 97.9027 221.778C102.269 225.693 107.389 227.651 113.261 227.651Z" fill="white"></path><path d="M200.722 251.29L264.638 124.812V123.759H190.182V97.108H298.365V124.135L234.374 251.29H200.722Z" fill="white"></path><defs><linearGradient id="paint0_linear_328_31" x1="159.854" y1="-24.8005" x2="1.07546" y2="353.893" gradientUnits="userSpaceOnUse"><stop stop-color="#FFC8C5"></stop><stop offset="1" stop-color="#FE7A80"></stop></linearGradient></defs></svg>