<svg xmlns="http://www.w3.org/2000/svg" width="349" height="349" viewBox="0 0 349 349" fill="none"><circle cx="174.5" cy="174.5" r="174.5" fill="url(#paint0_linear_328_30)"></circle><path d="M104.261 254.678C91.3118 254.627 80.1698 251.44 70.8346 245.116C61.5495 238.793 54.3975 229.633 49.3786 217.638C44.4098 205.643 41.9506 191.213 42.0008 174.349C42.0008 157.536 44.4851 143.207 49.4539 131.362C54.4728 119.518 61.6248 110.509 70.9098 104.335C80.2451 98.1117 91.362 95 104.261 95C117.159 95 128.251 98.1117 137.536 104.335C146.871 110.559 154.049 119.593 159.068 131.438C164.086 143.232 166.571 157.536 166.521 174.349C166.521 191.263 164.011 205.718 158.992 217.713C154.023 229.708 146.897 238.868 137.612 245.192C128.327 251.516 117.21 254.678 104.261 254.678ZM104.261 227.651C113.094 227.651 120.146 223.209 125.416 214.325C130.685 205.442 133.295 192.116 133.245 174.349C133.245 162.655 132.041 152.919 129.631 145.139C127.273 137.36 123.91 131.513 119.543 127.598C115.227 123.683 110.133 121.726 104.261 121.726C95.4776 121.726 88.451 126.117 83.1812 134.901C77.9113 143.684 75.2512 156.833 75.201 174.349C75.201 186.194 76.3805 196.081 78.7394 204.011C81.1485 211.891 84.5363 217.813 88.9027 221.778C93.2692 225.693 98.3885 227.651 104.261 227.651Z" fill="white"></path><path d="M247.282 253.398C235.688 253.398 225.374 251.516 216.34 247.751C207.356 243.937 200.304 238.742 195.185 232.168C190.066 225.593 187.506 218.14 187.506 209.808C187.506 203.384 188.962 197.487 191.873 192.116C194.834 186.696 198.849 182.204 203.918 178.641C208.987 175.027 214.659 172.718 220.932 171.714V170.661C212.701 169.004 206.026 165.014 200.907 158.69C195.787 152.316 193.228 144.913 193.228 136.482C193.228 128.501 195.561 121.4 200.229 115.176C204.897 108.902 211.296 103.984 219.427 100.42C227.607 96.8068 236.892 95 247.282 95C257.671 95 266.931 96.8068 275.061 100.42C283.242 104.034 289.667 108.978 294.334 115.251C299.002 121.475 301.361 128.552 301.411 136.482C301.361 144.964 298.751 152.366 293.581 158.69C288.412 165.014 281.787 169.004 273.706 170.661V171.714C279.88 172.718 285.476 175.027 290.495 178.641C295.564 182.204 299.579 186.696 302.54 192.116C305.552 197.487 307.082 203.384 307.133 209.808C307.082 218.14 304.498 225.593 299.378 232.168C294.259 238.742 287.182 243.937 278.148 247.751C269.164 251.516 258.875 253.398 247.282 253.398ZM247.282 229.457C252.451 229.457 256.968 228.529 260.833 226.672C264.697 224.765 267.709 222.155 269.867 218.842C272.075 215.48 273.179 211.615 273.179 207.249C273.179 202.782 272.05 198.842 269.792 195.429C267.533 191.966 264.472 189.256 260.607 187.298C256.742 185.291 252.301 184.287 247.282 184.287C242.313 184.287 237.871 185.291 233.956 187.298C230.042 189.256 226.955 191.966 224.696 195.429C222.488 198.842 221.384 202.782 221.384 207.249C221.384 211.615 222.463 215.48 224.621 218.842C226.779 222.155 229.816 224.765 233.731 226.672C237.645 228.529 242.162 229.457 247.282 229.457ZM247.282 160.572C251.598 160.572 255.437 159.694 258.8 157.938C262.163 156.181 264.798 153.747 266.705 150.635C268.612 147.523 269.566 143.935 269.566 139.869C269.566 135.854 268.612 132.341 266.705 129.33C264.798 126.268 262.188 123.884 258.875 122.178C255.563 120.421 251.698 119.543 247.282 119.543C242.915 119.543 239.051 120.421 235.688 122.178C232.325 123.884 229.69 126.268 227.783 129.33C225.926 132.341 224.998 135.854 224.998 139.869C224.998 143.935 225.951 147.523 227.858 150.635C229.766 153.747 232.4 156.181 235.763 157.938C239.126 159.694 242.965 160.572 247.282 160.572Z" fill="white"></path><defs><linearGradient id="paint0_linear_328_30" x1="159.854" y1="-24.8005" x2="1.07546" y2="353.893" gradientUnits="userSpaceOnUse"><stop stop-color="#FFC8C5"></stop><stop offset="1" stop-color="#FE7A80"></stop></linearGradient></defs></svg>