<svg xmlns="http://www.w3.org/2000/svg" width="18" height="19" viewBox="0 0 18 19" fill="none"><path d="M7.74 14.0946L14.085 7.76305L12.825 6.50572L7.74 11.58L5.175 9.02039L3.915 10.2777L7.74 14.0946ZM9 18.9444C7.755 18.9444 6.585 18.7085 5.49 18.2367C4.395 17.7655 3.4425 17.1257 2.6325 16.3174C1.8225 15.5091 1.1814 14.5586 0.7092 13.466C0.2364 12.3733 0 11.2058 0 9.96339C0 8.72102 0.2364 7.5535 0.7092 6.46081C1.1814 5.36813 1.8225 4.41764 2.6325 3.60935C3.4425 2.80107 4.395 2.16102 5.49 1.68922C6.585 1.21802 7.755 0.982422 9 0.982422C10.245 0.982422 11.415 1.21802 12.51 1.68922C13.605 2.16102 14.5575 2.80107 15.3675 3.60935C16.1775 4.41764 16.8186 5.36813 17.2908 6.46081C17.7636 7.5535 18 8.72102 18 9.96339C18 11.2058 17.7636 12.3733 17.2908 13.466C16.8186 14.5586 16.1775 15.5091 15.3675 16.3174C14.5575 17.1257 13.605 17.7655 12.51 18.2367C11.415 18.7085 10.245 18.9444 9 18.9444Z" fill="#FE7A80"></path></svg>