<svg xmlns="http://www.w3.org/2000/svg" width="33" height="33" viewBox="0 0 33 33" fill="none"><circle cx="16.5" cy="16.5" r="16.5" fill="#FE7A80"></circle><path d="M15.9269 25.181V23.1765C15.0182 23.0174 14.2729 22.6714 13.691 22.1385C13.1091 21.6056 12.6906 20.9335 12.4355 20.1221L13.7747 19.5733C14.0457 20.3369 14.4363 20.9056 14.9464 21.2795C15.4566 21.6533 16.0703 21.8402 16.7877 21.8402C17.5529 21.8402 18.1826 21.6493 18.6769 21.2675C19.1711 20.8857 19.4182 20.3608 19.4182 19.6926C19.4182 18.9926 19.199 18.4518 18.7605 18.07C18.3221 17.6882 17.4971 17.2984 16.2855 16.9007C15.1377 16.5348 14.2808 16.0496 13.7149 15.4451C13.149 14.8406 12.866 14.0849 12.866 13.1782C12.866 12.3032 13.149 11.5714 13.7149 10.9828C14.2808 10.3942 15.0182 10.0601 15.9269 9.98059V8H17.3616V9.98059C18.079 10.0601 18.6968 10.2948 19.2149 10.6845C19.733 11.0743 20.1276 11.5714 20.3986 12.1759L19.0595 12.7486C18.8363 12.2396 18.5374 11.8697 18.1627 11.639C17.7881 11.4084 17.2979 11.293 16.6921 11.293C15.9587 11.293 15.3769 11.4601 14.9464 11.7941C14.516 12.1282 14.3008 12.5816 14.3008 13.1543C14.3008 13.7588 14.5399 14.248 15.0182 14.6218C15.4964 14.9957 16.3812 15.3815 17.6725 15.7792C18.7566 16.1132 19.5576 16.5945 20.0758 17.2228C20.5939 17.8512 20.8529 18.6427 20.8529 19.5972C20.8529 20.5994 20.558 21.4067 19.9682 22.0192C19.3783 22.6317 18.5095 23.0254 17.3616 23.2004V25.181H15.9269Z" fill="white"></path></svg>