<svg xmlns="http://www.w3.org/2000/svg" width="349" height="349" viewBox="0 0 349 349" fill="none"><circle cx="174.5" cy="174.5" r="174.5" fill="url(#paint0_linear_328_27)"></circle><path d="M104.261 254.678C91.3118 254.627 80.1698 251.44 70.8346 245.116C61.5495 238.793 54.3975 229.633 49.3786 217.638C44.4098 205.643 41.9506 191.213 42.0008 174.349C42.0008 157.536 44.4851 143.207 49.4539 131.362C54.4728 119.518 61.6248 110.509 70.9098 104.335C80.2451 98.1117 91.362 95 104.261 95C117.159 95 128.251 98.1117 137.536 104.335C146.871 110.559 154.049 119.593 159.068 131.438C164.086 143.232 166.571 157.536 166.521 174.349C166.521 191.263 164.011 205.718 158.992 217.713C154.023 229.708 146.897 238.868 137.612 245.192C128.327 251.516 117.21 254.678 104.261 254.678ZM104.261 227.651C113.094 227.651 120.146 223.209 125.416 214.325C130.685 205.442 133.295 192.116 133.245 174.349C133.245 162.655 132.041 152.919 129.631 145.139C127.273 137.36 123.91 131.513 119.543 127.598C115.227 123.683 110.133 121.726 104.261 121.726C95.4776 121.726 88.451 126.117 83.1812 134.901C77.9113 143.684 75.2512 156.833 75.201 174.349C75.201 186.194 76.3805 196.081 78.7394 204.011C81.1485 211.891 84.5363 217.813 88.9027 221.778C93.2692 225.693 98.3885 227.651 104.261 227.651Z" fill="white"></path><path d="M246.755 253.398C235.512 253.398 225.499 251.465 216.716 247.601C207.983 243.686 201.082 238.316 196.013 231.49C190.994 224.614 188.409 216.684 188.259 207.7H221.083C221.284 211.464 222.513 214.777 224.772 217.638C227.08 220.448 230.142 222.632 233.956 224.188C237.771 225.743 242.062 226.521 246.83 226.521C251.799 226.521 256.19 225.643 260.005 223.886C263.819 222.13 266.805 219.696 268.963 216.584C271.122 213.472 272.201 209.884 272.201 205.818C272.201 201.703 271.046 198.064 268.738 194.902C266.479 191.69 263.217 189.18 258.951 187.374C254.735 185.567 249.716 184.663 243.894 184.663H229.515V160.723H243.894C248.812 160.723 253.154 159.87 256.918 158.163C260.732 156.457 263.694 154.098 265.802 151.087C267.909 148.025 268.963 144.462 268.963 140.396C268.963 136.532 268.035 133.144 266.178 130.233C264.371 127.272 261.811 124.963 258.499 123.307C255.237 121.651 251.422 120.822 247.056 120.822C242.639 120.822 238.599 121.625 234.935 123.232C231.271 124.787 228.335 127.021 226.127 129.932C223.918 132.843 222.739 136.256 222.588 140.17H191.346C191.496 131.287 194.031 123.457 198.949 116.682C203.868 109.906 210.493 104.611 218.824 100.797C227.206 96.9323 236.667 95 247.206 95C257.847 95 267.157 96.9323 275.137 100.797C283.117 104.661 289.315 109.881 293.732 116.456C298.199 122.981 300.407 130.308 300.357 138.439C300.407 147.071 297.722 154.274 292.302 160.045C286.931 165.817 279.93 169.481 271.297 171.037V172.241C282.64 173.697 291.273 177.637 297.195 184.061C303.168 190.435 306.129 198.415 306.079 208.001C306.129 216.785 303.594 224.589 298.475 231.415C293.406 238.241 286.404 243.611 277.471 247.526C268.537 251.44 258.298 253.398 246.755 253.398Z" fill="white"></path><defs><linearGradient id="paint0_linear_328_27" x1="159.854" y1="-24.8005" x2="1.07546" y2="353.893" gradientUnits="userSpaceOnUse"><stop stop-color="#FFC8C5"></stop><stop offset="1" stop-color="#FE7A80"></stop></linearGradient></defs></svg>