<svg xmlns="http://www.w3.org/2000/svg" width="190" height="21" viewBox="0 0 190 21" fill="none"><path d="M85.2294 1.99625V17.8001H83.6528V1.99625H85.2294ZM99.2631 8.33561H97.5081C97.4581 8.04782 97.3658 7.79286 97.2313 7.57076C97.0968 7.34553 96.9294 7.15471 96.7292 6.99829C96.529 6.84188 96.3006 6.72457 96.0441 6.64637C95.7907 6.56503 95.517 6.52437 95.223 6.52437C94.7005 6.52437 94.2376 6.65575 93.834 6.91852C93.4305 7.17817 93.1145 7.55981 92.8862 8.06346C92.6578 8.56397 92.5436 9.17554 92.5436 9.89816C92.5436 10.6333 92.6578 11.2527 92.8862 11.7563C93.1177 12.2568 93.4336 12.6354 93.834 12.8919C94.2376 13.1453 94.699 13.272 95.2183 13.272C95.5061 13.272 95.7751 13.2344 96.0253 13.1593C96.2787 13.0811 96.5055 12.967 96.7057 12.8168C96.9091 12.6666 97.0796 12.4821 97.2172 12.2631C97.358 12.0441 97.4549 11.7939 97.5081 11.5123L99.2631 11.5217C99.1974 11.9784 99.055 12.407 98.8361 12.8074C98.6202 13.2078 98.3371 13.5613 97.9867 13.8679C97.6364 14.1713 97.2266 14.4091 96.7573 14.5811C96.2881 14.75 95.7673 14.8345 95.1948 14.8345C94.3502 14.8345 93.5963 14.639 92.9331 14.248C92.2699 13.8569 91.7475 13.2923 91.3658 12.554C90.9842 11.8158 90.7934 10.9305 90.7934 9.89816C90.7934 8.86272 90.9858 7.97743 91.3705 7.2423C91.7553 6.50403 92.2793 5.93939 92.9425 5.54836C93.6057 5.15733 94.3564 4.96182 95.1948 4.96182C95.7297 4.96182 96.2271 5.03689 96.687 5.18705C97.1468 5.3372 97.5566 5.55774 97.9164 5.84867C98.2761 6.13647 98.5717 6.48996 98.8032 6.90914C99.0378 7.32519 99.1911 7.80069 99.2631 8.33561ZM103.926 14.8439C103.222 14.8439 102.612 14.689 102.096 14.3794C101.58 14.0697 101.179 13.6364 100.895 13.0796C100.613 12.5227 100.473 11.8721 100.473 11.1276C100.473 10.383 100.613 9.7308 100.895 9.17085C101.179 8.6109 101.58 8.17607 102.096 7.86638C102.612 7.55668 103.222 7.40184 103.926 7.40184C104.63 7.40184 105.24 7.55668 105.756 7.86638C106.272 8.17607 106.671 8.6109 106.953 9.17085C107.237 9.7308 107.38 10.383 107.38 11.1276C107.38 11.8721 107.237 12.5227 106.953 13.0796C106.671 13.6364 106.272 14.0697 105.756 14.3794C105.24 14.689 104.63 14.8439 103.926 14.8439ZM103.935 13.4831C104.317 13.4831 104.636 13.3783 104.893 13.1687C105.149 12.956 105.34 12.6713 105.465 12.3147C105.593 11.9581 105.658 11.5608 105.658 11.1229C105.658 10.6818 105.593 10.2829 105.465 9.92632C105.34 9.56657 105.149 9.28034 104.893 9.06762C104.636 8.8549 104.317 8.74854 103.935 8.74854C103.544 8.74854 103.219 8.8549 102.959 9.06762C102.703 9.28034 102.511 9.56657 102.382 9.92632C102.257 10.2829 102.195 10.6818 102.195 11.1229C102.195 11.5608 102.257 11.9581 102.382 12.3147C102.511 12.6713 102.703 12.956 102.959 13.1687C103.219 13.3783 103.544 13.4831 103.935 13.4831ZM108.821 14.7031V7.49568H110.445V8.72038H110.529C110.68 8.30746 110.928 7.98525 111.275 7.75376C111.623 7.51914 112.037 7.40184 112.519 7.40184C113.007 7.40184 113.418 7.52071 113.753 7.75845C114.091 7.99307 114.329 8.31371 114.466 8.72038H114.541C114.701 8.31997 114.97 8.00089 115.348 7.76315C115.73 7.52227 116.182 7.40184 116.705 7.40184C117.368 7.40184 117.909 7.61143 118.328 8.03061C118.747 8.44979 118.957 9.06136 118.957 9.86532V14.7031H117.254V10.1281C117.254 9.68075 117.135 9.35385 116.897 9.14739C116.659 8.9378 116.368 8.833 116.024 8.833C115.614 8.833 115.294 8.96126 115.062 9.21777C114.834 9.47116 114.72 9.80119 114.72 10.2079V14.7031H113.054V10.0577C113.054 9.68544 112.941 9.38826 112.716 9.16616C112.494 8.94405 112.203 8.833 111.843 8.833C111.599 8.833 111.377 8.89557 111.177 9.02069C110.977 9.1427 110.817 9.31631 110.698 9.54155C110.579 9.76365 110.52 10.0233 110.52 10.3205V14.7031H108.821ZM120.68 17.4059V7.49568H122.351V8.68754H122.449C122.537 8.51236 122.66 8.32623 122.82 8.12915C122.979 7.92894 123.195 7.75845 123.467 7.61768C123.74 7.47379 124.087 7.40184 124.509 7.40184C125.066 7.40184 125.568 7.54417 126.015 7.82884C126.466 8.11038 126.822 8.528 127.085 9.0817C127.351 9.63226 127.484 10.308 127.484 11.1088C127.484 11.9002 127.354 12.5728 127.095 13.1265C126.835 13.6802 126.481 14.1025 126.034 14.3934C125.587 14.6844 125.08 14.8298 124.514 14.8298C124.101 14.8298 123.758 14.761 123.486 14.6234C123.214 14.4857 122.995 14.3199 122.829 14.126C122.667 13.9289 122.54 13.7428 122.449 13.5676H122.379V17.4059H120.68ZM122.346 11.0994C122.346 11.5655 122.412 11.9737 122.543 12.3241C122.677 12.6745 122.87 12.9482 123.12 13.1453C123.374 13.3392 123.68 13.4362 124.04 13.4362C124.415 13.4362 124.73 13.3361 124.983 13.1359C125.236 12.9325 125.427 12.6557 125.555 12.3053C125.687 11.9518 125.753 11.5499 125.753 11.0994C125.753 10.6521 125.688 10.2548 125.56 9.90755C125.432 9.56031 125.241 9.28816 124.988 9.09108C124.734 8.894 124.418 8.79546 124.04 8.79546C123.677 8.79546 123.369 8.89087 123.115 9.0817C122.862 9.27252 122.67 9.53998 122.538 9.88409C122.41 10.2282 122.346 10.6333 122.346 11.0994ZM128.939 14.7031V7.49568H130.586V8.69692H130.661C130.792 8.28087 131.017 7.96023 131.336 7.73499C131.659 7.50663 132.026 7.39245 132.439 7.39245C132.533 7.39245 132.638 7.39714 132.754 7.40653C132.872 7.41278 132.971 7.42373 133.049 7.43937V9.00193C132.977 8.9769 132.863 8.955 132.707 8.93623C132.553 8.91433 132.405 8.90339 132.261 8.90339C131.951 8.90339 131.673 8.97064 131.426 9.10516C131.182 9.23654 130.989 9.41954 130.848 9.65416C130.708 9.88878 130.637 10.1594 130.637 10.4659V14.7031H128.939ZM136.123 14.8486C135.666 14.8486 135.255 14.7673 134.889 14.6046C134.526 14.4388 134.238 14.1948 134.025 13.8726C133.816 13.5504 133.711 13.1531 133.711 12.6807C133.711 12.2741 133.786 11.9378 133.936 11.6719C134.086 11.406 134.291 11.1933 134.551 11.0337C134.81 10.8742 135.103 10.7537 135.428 10.6724C135.757 10.5879 136.096 10.5269 136.446 10.4894C136.869 10.4456 137.211 10.4065 137.474 10.3721C137.737 10.3346 137.928 10.2782 138.046 10.2032C138.168 10.125 138.229 10.0045 138.229 9.84186V9.8137C138.229 9.46021 138.125 9.18649 137.915 8.99254C137.705 8.79859 137.404 8.70162 137.009 8.70162C136.593 8.70162 136.263 8.79233 136.019 8.97377C135.778 9.15521 135.616 9.36949 135.531 9.61662L133.945 9.39139C134.07 8.95344 134.277 8.58743 134.565 8.29338C134.853 7.9962 135.204 7.77409 135.621 7.62707C136.037 7.47691 136.496 7.40184 137 7.40184C137.347 7.40184 137.693 7.4425 138.037 7.52384C138.381 7.60517 138.696 7.73968 138.98 7.92738C139.265 8.11194 139.493 8.36377 139.665 8.68285C139.841 9.00193 139.928 9.40077 139.928 9.87939V14.7031H138.295V13.713H138.239C138.136 13.9132 137.99 14.1009 137.802 14.2761C137.618 14.4482 137.385 14.5874 137.103 14.6937C136.825 14.797 136.498 14.8486 136.123 14.8486ZM136.564 13.6004C136.905 13.6004 137.2 13.5332 137.451 13.3987C137.701 13.261 137.893 13.0796 138.028 12.8543C138.165 12.6291 138.234 12.3835 138.234 12.1176V11.2683C138.181 11.3121 138.09 11.3528 137.962 11.3903C137.837 11.4279 137.696 11.4607 137.54 11.4889C137.383 11.517 137.228 11.542 137.075 11.5639C136.922 11.5858 136.789 11.6046 136.676 11.6203C136.423 11.6547 136.196 11.711 135.996 11.7892C135.796 11.8674 135.638 11.9769 135.522 12.1176C135.406 12.2553 135.348 12.4336 135.348 12.6526C135.348 12.9654 135.463 13.2016 135.691 13.3611C135.919 13.5207 136.21 13.6004 136.564 13.6004ZM150.61 9.40077L149.062 9.5697C149.018 9.41329 148.941 9.26626 148.832 9.12862C148.725 8.99098 148.582 8.87992 148.4 8.79546C148.219 8.711 147.997 8.66877 147.734 8.66877C147.38 8.66877 147.083 8.74541 146.842 8.89869C146.605 9.05198 146.487 9.25062 146.49 9.49462C146.487 9.70421 146.564 9.8747 146.72 10.0061C146.88 10.1375 147.143 10.2454 147.509 10.3299L148.738 10.5926C149.42 10.7397 149.927 10.9727 150.258 11.2918C150.593 11.6109 150.762 12.0285 150.765 12.5446C150.762 12.9982 150.629 13.3987 150.366 13.7459C150.107 14.09 149.745 14.359 149.282 14.553C148.819 14.7469 148.288 14.8439 147.687 14.8439C146.805 14.8439 146.095 14.6593 145.557 14.2902C145.019 13.9179 144.698 13.4002 144.595 12.737L146.251 12.5775C146.326 12.9028 146.486 13.1484 146.73 13.3142C146.974 13.48 147.291 13.5629 147.682 13.5629C148.086 13.5629 148.41 13.48 148.654 13.3142C148.901 13.1484 149.024 12.9435 149.024 12.6995C149.024 12.493 148.944 12.3225 148.785 12.188C148.628 12.0535 148.384 11.9503 148.053 11.8783L146.823 11.6203C146.132 11.4764 145.621 11.2339 145.289 10.8929C144.958 10.5488 144.793 10.114 144.796 9.58847C144.793 9.14426 144.914 8.75949 145.158 8.43415C145.405 8.10569 145.747 7.8523 146.185 7.67399C146.626 7.49255 147.135 7.40184 147.71 7.40184C148.555 7.40184 149.22 7.58171 149.705 7.94146C150.193 8.3012 150.494 8.78764 150.61 9.40077ZM155.357 14.8439C154.634 14.8439 154.01 14.6937 153.484 14.3934C152.962 14.09 152.56 13.6614 152.278 13.1077C151.997 12.5509 151.856 11.8955 151.856 11.1416C151.856 10.4002 151.997 9.74957 152.278 9.18962C152.563 8.62654 152.96 8.18859 153.47 7.87576C153.98 7.55981 154.579 7.40184 155.267 7.40184C155.712 7.40184 156.131 7.47379 156.525 7.61768C156.922 7.75845 157.273 7.97743 157.576 8.27461C157.883 8.57179 158.123 8.95031 158.299 9.41016C158.474 9.86688 158.561 10.4112 158.561 11.0431V11.5639H152.654V10.419H156.933C156.93 10.0937 156.86 9.80432 156.722 9.55093C156.584 9.29442 156.392 9.09264 156.145 8.94562C155.901 8.79859 155.616 8.72508 155.291 8.72508C154.944 8.72508 154.639 8.80954 154.376 8.97846C154.113 9.14426 153.908 9.36324 153.761 9.63539C153.617 9.90442 153.544 10.2 153.541 10.5222V11.5217C153.541 11.9409 153.617 12.3006 153.771 12.601C153.924 12.8981 154.138 13.1265 154.413 13.286C154.689 13.4424 155.011 13.5207 155.38 13.5207C155.627 13.5207 155.851 13.4862 156.051 13.4174C156.251 13.3455 156.425 13.2407 156.572 13.103C156.719 12.9654 156.83 12.7949 156.905 12.5916L158.491 12.7699C158.391 13.1891 158.2 13.5551 157.919 13.8679C157.64 14.1776 157.284 14.4185 156.849 14.5905C156.414 14.7594 155.916 14.8439 155.357 14.8439ZM163.133 17.5561C162.523 17.5561 161.999 17.4732 161.561 17.3074C161.123 17.1447 160.771 16.9257 160.505 16.6504C160.239 16.3752 160.055 16.0702 159.952 15.7354L161.481 15.3647C161.55 15.5055 161.65 15.6447 161.782 15.7824C161.913 15.9231 162.09 16.0389 162.312 16.1296C162.537 16.2234 162.82 16.2704 163.161 16.2704C163.643 16.2704 164.042 16.1531 164.358 15.9184C164.674 15.687 164.832 15.3053 164.832 14.7735V13.408H164.747C164.659 13.5832 164.531 13.7631 164.362 13.9477C164.197 14.1322 163.976 14.2871 163.701 14.4122C163.429 14.5373 163.086 14.5999 162.673 14.5999C162.119 14.5999 161.617 14.4701 161.167 14.2104C160.719 13.9477 160.363 13.5566 160.097 13.0373C159.834 12.5149 159.703 11.8611 159.703 11.0759C159.703 10.2845 159.834 9.61662 160.097 9.07231C160.363 8.52487 160.721 8.11038 161.172 7.82884C161.622 7.54417 162.124 7.40184 162.678 7.40184C163.1 7.40184 163.447 7.47379 163.719 7.61768C163.995 7.75845 164.214 7.92894 164.376 8.12915C164.539 8.32623 164.663 8.51236 164.747 8.68754H164.841V7.49568H166.516V14.8204C166.516 15.4367 166.369 15.9466 166.075 16.3501C165.781 16.7537 165.379 17.0556 164.869 17.2558C164.359 17.456 163.78 17.5561 163.133 17.5561ZM163.147 13.2673C163.507 13.2673 163.813 13.1797 164.067 13.0045C164.32 12.8293 164.512 12.5775 164.644 12.249C164.775 11.9206 164.841 11.5264 164.841 11.0666C164.841 10.613 164.775 10.2157 164.644 9.8747C164.516 9.53372 164.325 9.26939 164.071 9.0817C163.821 8.89087 163.513 8.79546 163.147 8.79546C162.768 8.79546 162.453 8.894 162.199 9.09108C161.946 9.28816 161.755 9.55875 161.627 9.90286C161.498 10.2438 161.434 10.6317 161.434 11.0666C161.434 11.5076 161.498 11.894 161.627 12.2256C161.758 12.554 161.95 12.8105 162.204 12.9951C162.46 13.1765 162.775 13.2673 163.147 13.2673ZM172.851 11.6719V7.49568H174.549V14.7031H172.902V13.4221H172.827C172.665 13.8257 172.397 14.1557 172.025 14.4122C171.656 14.6687 171.201 14.797 170.659 14.797C170.187 14.797 169.769 14.6922 169.407 14.4826C169.047 14.2699 168.765 13.9617 168.562 13.5582C168.359 13.1515 168.257 12.6604 168.257 12.0848V7.49568H169.956V11.822C169.956 12.2787 170.081 12.6416 170.331 12.9106C170.581 13.1797 170.91 13.3142 171.316 13.3142C171.567 13.3142 171.809 13.2532 172.044 13.1312C172.278 13.0092 172.471 12.8278 172.621 12.5869C172.774 12.3429 172.851 12.0379 172.851 11.6719ZM176.296 14.7031V7.49568H177.943V8.69692H178.018C178.15 8.28087 178.375 7.96023 178.694 7.73499C179.016 7.50663 179.384 7.39245 179.797 7.39245C179.89 7.39245 179.995 7.39714 180.111 7.40653C180.23 7.41278 180.328 7.42373 180.407 7.43937V9.00193C180.335 8.9769 180.22 8.955 180.064 8.93623C179.911 8.91433 179.762 8.90339 179.618 8.90339C179.309 8.90339 179.03 8.97064 178.783 9.10516C178.539 9.23654 178.347 9.41954 178.206 9.65416C178.065 9.88878 177.995 10.1594 177.995 10.4659V14.7031H176.296ZM183.48 14.8486C183.023 14.8486 182.612 14.7673 182.246 14.6046C181.883 14.4388 181.595 14.1948 181.383 13.8726C181.173 13.5504 181.068 13.1531 181.068 12.6807C181.068 12.2741 181.143 11.9378 181.293 11.6719C181.444 11.406 181.649 11.1933 181.908 11.0337C182.168 10.8742 182.46 10.7537 182.786 10.6724C183.114 10.5879 183.454 10.5269 183.804 10.4894C184.226 10.4456 184.569 10.4065 184.831 10.3721C185.094 10.3346 185.285 10.2782 185.404 10.2032C185.526 10.125 185.587 10.0045 185.587 9.84186V9.8137C185.587 9.46021 185.482 9.18649 185.273 8.99254C185.063 8.79859 184.761 8.70162 184.367 8.70162C183.951 8.70162 183.621 8.79233 183.377 8.97377C183.136 9.15521 182.973 9.36949 182.889 9.61662L181.303 9.39139C181.428 8.95344 181.634 8.58743 181.922 8.29338C182.21 7.9962 182.562 7.77409 182.978 7.62707C183.394 7.47691 183.854 7.40184 184.358 7.40184C184.705 7.40184 185.05 7.4425 185.395 7.52384C185.739 7.60517 186.053 7.73968 186.338 7.92738C186.622 8.11194 186.851 8.36377 187.023 8.68285C187.198 9.00193 187.286 9.40077 187.286 9.87939V14.7031H185.653V13.713H185.596C185.493 13.9132 185.348 14.1009 185.16 14.2761C184.975 14.4482 184.742 14.5874 184.461 14.6937C184.182 14.797 183.855 14.8486 183.48 14.8486ZM183.921 13.6004C184.262 13.6004 184.558 13.5332 184.808 13.3987C185.058 13.261 185.251 13.0796 185.385 12.8543C185.523 12.6291 185.592 12.3835 185.592 12.1176V11.2683C185.538 11.3121 185.448 11.3528 185.319 11.3903C185.194 11.4279 185.054 11.4607 184.897 11.4889C184.741 11.517 184.586 11.542 184.433 11.5639C184.279 11.5858 184.146 11.6046 184.034 11.6203C183.78 11.6547 183.554 11.711 183.353 11.7892C183.153 11.8674 182.995 11.9769 182.879 12.1176C182.764 12.2553 182.706 12.4336 182.706 12.6526C182.706 12.9654 182.82 13.2016 183.048 13.3611C183.277 13.5207 183.568 13.6004 183.921 13.6004Z" fill="#9E8078"></path><path d="M5.80187 1.98167C5.23315 2.81579 4.68244 3.49162 4.27676 4.24612C3.018 6.58165 2.78956 9.03188 3.72795 11.5304C4.86064 14.5465 7.00945 16.4698 10.1601 17.2119C13.1848 17.9238 15.8577 17.1503 18.1866 15.1475C18.508 14.8717 18.69 14.8821 18.9601 15.1655C19.4587 15.6897 19.9715 16.2006 20.4937 16.7001C20.7497 16.9446 20.7364 17.1096 20.4729 17.3513C17.9165 19.6963 14.8938 20.7958 11.4464 20.6053C8.46157 20.4404 5.85969 19.2792 3.70615 17.1977C1.99051 15.5399 0.877722 13.5266 0.322274 11.2044C-0.15071 9.23282 -0.0938379 7.26601 0.432226 5.32289C0.941229 3.44422 1.86066 1.77124 3.18293 0.330493C3.58103 -0.103629 3.62463 -0.103629 4.03979 0.292578C4.64074 0.866035 5.23884 1.44234 5.80187 1.98262V1.98167Z" fill="#9E8078"></path><path d="M38.6884 5.38748C39.697 5.38748 40.5927 5.37042 41.4856 5.40643C41.6155 5.41212 41.7965 5.65572 41.8496 5.82255C42.4733 7.79789 43.0761 9.77893 43.6884 11.7581C43.7178 11.8519 43.7794 11.9353 43.8875 12.141C44.1112 11.4026 44.2998 10.7837 44.4856 10.1647C44.9339 8.67561 45.3718 7.18273 45.842 5.70027C45.8865 5.56094 46.1254 5.39885 46.2808 5.39222C47.005 5.35999 47.732 5.38937 48.4571 5.37326C48.8211 5.36568 48.8837 5.60169 48.9661 5.86994C49.5623 7.82254 50.1671 9.77324 50.7709 11.7249C50.8078 11.8434 50.8562 11.9581 50.9415 12.1884C51.3045 11.0017 51.6363 9.91732 51.9671 8.83296C52.2694 7.84149 52.5803 6.85287 52.8685 5.85762C52.9727 5.49743 53.1623 5.35146 53.5462 5.36852C54.1917 5.39696 54.8391 5.37989 55.4865 5.3761C55.8031 5.37421 55.9661 5.44435 55.8258 5.8197C55.0798 7.81969 54.3472 9.82442 53.6154 11.8301C53.2609 12.8036 52.9083 13.778 52.5765 14.7599C52.4419 15.159 52.2751 15.4007 51.7813 15.3609C51.1225 15.3088 50.4571 15.3391 49.7946 15.3524C49.5197 15.358 49.3756 15.2775 49.2856 14.9931C48.804 13.4822 48.2988 11.9789 47.7993 10.4737C47.6514 10.0292 47.495 9.58841 47.314 9.06424C46.8742 10.4244 46.4628 11.7059 46.0467 12.9846C45.823 13.6718 45.6097 14.3628 45.3519 15.0367C45.2988 15.1751 45.0733 15.3268 44.9206 15.3334C44.1965 15.3647 43.4695 15.3287 42.7444 15.3562C42.4088 15.3685 42.2609 15.2197 42.1586 14.9391C41.7453 13.8026 41.3245 12.6699 40.9083 11.5344C40.2392 9.70499 39.5719 7.87467 38.9055 6.04435C38.843 5.87183 38.7899 5.69553 38.6875 5.38748H38.6884Z" fill="#9E8078"></path><path d="M27.635 11.4105C27.0853 12.0759 26.2909 12.4636 26.4417 13.4712C26.5127 13.9489 26.4417 14.4456 26.4578 14.9337C26.4672 15.2314 26.3734 15.3593 26.0559 15.3527C25.3308 15.3356 24.6047 15.3375 23.8796 15.3527C23.5867 15.3584 23.4805 15.2314 23.4853 14.9631C23.4872 14.8683 23.4824 14.7745 23.4824 14.6797C23.4824 10.5707 23.4824 6.46079 23.4824 2.35181C23.4824 1.60868 23.4853 1.60773 24.2113 1.60679C24.7791 1.60679 25.3478 1.62574 25.9146 1.6011C26.3241 1.58309 26.4653 1.72622 26.4625 2.14328C26.4454 4.20583 26.4549 6.26838 26.4549 8.33093C26.4549 8.50249 26.4549 8.67405 26.4549 8.9622C26.6445 8.78969 26.7687 8.68732 26.8805 8.57263C27.7895 7.63425 28.6824 6.67975 29.6151 5.76411C29.8141 5.56885 30.1487 5.43141 30.4293 5.41341C31.1829 5.36601 31.9421 5.3954 32.6994 5.39919C32.852 5.39919 33.0037 5.42478 33.2682 5.44848C32.9819 5.77738 32.7715 6.03805 32.5411 6.27975C31.6843 7.18022 30.8265 8.07974 29.9544 8.96505C29.7421 9.18116 29.7099 9.32903 29.8852 9.60391C31.0378 11.4039 32.1658 13.2191 33.2994 15.0304C33.3383 15.093 33.3506 15.1717 33.3914 15.2911C33.2454 15.3129 33.1307 15.3451 33.016 15.3461C32.1326 15.3499 31.2492 15.3385 30.3667 15.3546C30.0748 15.3603 29.9165 15.2503 29.7715 15.002C29.0928 13.8352 28.3924 12.6807 27.6341 11.4124L27.635 11.4105Z" fill="#9E8078"></path><path d="M69.4044 15.9823C69.777 16.1387 70.0575 16.279 70.3533 16.3757C71.1703 16.6439 72.2054 15.9729 72.1931 15.1264C72.1874 14.7567 71.9637 14.3842 71.8111 14.025C71.048 12.2326 70.2746 10.4459 69.5059 8.65535C69.1343 7.78995 68.7637 6.92455 68.3997 6.05536C68.3239 5.87337 68.2793 5.67906 68.1836 5.37385C68.6367 5.37385 69.0063 5.37385 69.376 5.37385C69.8651 5.37385 70.357 5.34541 70.8414 5.39186C71.0139 5.40797 71.2585 5.57101 71.3201 5.72551C71.9438 7.30086 72.5343 8.89042 73.139 10.4734C73.3106 10.9226 73.4964 11.3662 73.7864 11.8146C73.9637 11.3198 74.1457 10.826 74.3172 10.3293C74.8404 8.81554 75.3684 7.30275 75.8746 5.78333C75.9788 5.46958 76.1504 5.36627 76.4613 5.37101C77.2584 5.38238 78.0546 5.3748 78.976 5.3748C78.6935 6.11792 78.4641 6.74351 78.2196 7.36342C77.4603 9.29137 76.702 11.2203 75.9295 13.1435C75.3968 14.4686 74.8916 15.8079 74.2784 17.0961C73.703 18.3065 72.6784 18.951 71.3153 19.0335C70.2916 19.0951 69.3343 18.9264 68.5059 18.2875C68.3921 18.1994 68.2509 17.9624 68.2926 17.8856C68.6462 17.2307 69.0395 16.5956 69.4054 15.9814L69.4044 15.9823Z" fill="#9E8078"></path><path d="M68.3171 4.27376C67.7788 4.17139 67.3096 4.01784 66.8366 4.00741C66.1285 3.9913 65.5797 5.02541 65.9494 5.62826C66.0044 5.71735 66.1863 5.76285 66.3124 5.76759C66.8006 5.78465 67.2897 5.78465 67.7778 5.77423C68.102 5.76759 68.229 5.90219 68.2157 6.22636C68.1977 6.66617 68.2006 7.10787 68.2138 7.54768C68.2224 7.83488 68.0944 7.94294 67.8195 7.93915C67.3465 7.93346 66.8726 7.96 66.4015 7.93346C65.9996 7.91071 65.8906 8.07564 65.8935 8.45573C65.9067 10.5334 65.9001 12.6112 65.8991 14.6879C65.8991 15.3439 65.8963 15.3448 65.2631 15.3448C64.648 15.3448 64.0328 15.3239 63.4186 15.3524C63.0394 15.3704 62.9352 15.2377 62.938 14.869C62.9532 12.76 62.9304 10.651 62.956 8.54199C62.9617 8.07185 62.8499 7.90408 62.3598 7.92777C61.6252 7.96474 61.6243 7.93346 61.6233 7.17706C61.6233 6.86237 61.6366 6.54673 61.6205 6.23299C61.6044 5.91356 61.7314 5.78655 62.0556 5.77044C62.938 5.72778 62.938 5.71641 62.9456 4.85764C62.9627 3.01121 64.266 1.67472 66.2214 1.50316C67.1702 1.41974 68.066 1.6188 68.9285 2.00837C69.229 2.14391 69.3304 2.29936 69.1484 2.62448C68.8423 3.17139 68.5807 3.74201 68.3152 4.27186L68.3171 4.27376Z" fill="#9E8078"></path><path d="M59.9569 10.4064C59.9569 11.8869 59.9465 13.3684 59.9645 14.849C59.9692 15.2452 59.8327 15.3713 59.4441 15.3561C58.7664 15.3305 58.0867 15.3362 57.409 15.3542C57.0763 15.3627 56.919 15.2698 56.9199 14.9068C56.9285 11.8822 56.9266 8.85755 56.9218 5.83292C56.9218 5.51159 57.0564 5.37415 57.374 5.37605C58.0839 5.38173 58.7939 5.38553 59.5038 5.3751C59.8583 5.37036 59.9635 5.53624 59.9607 5.86894C59.9502 7.38078 59.9559 8.89357 59.9559 10.4064H59.9569Z" fill="#9E8078"></path><path d="M37.6399 10.3523C37.6399 11.8481 37.6304 13.3428 37.6465 14.8386C37.6503 15.2206 37.5385 15.3722 37.1366 15.3561C36.4598 15.3277 35.7802 15.3371 35.1034 15.3533C34.7897 15.3608 34.6475 15.2708 34.6484 14.9305C34.657 11.8926 34.656 8.85471 34.6503 5.81681C34.6503 5.52013 34.7612 5.37795 35.0617 5.3789C35.7868 5.38174 36.5119 5.38459 37.238 5.37701C37.5906 5.37321 37.6456 5.577 37.6437 5.86705C37.638 7.36278 37.6408 8.85756 37.6408 10.3533L37.6399 10.3523Z" fill="#9E8078"></path><path d="M58.4547 4.28168C57.5353 4.28358 56.8225 3.55752 56.8282 2.62577C56.8338 1.70729 57.5258 1.00871 58.4329 1.00587C59.3789 1.00302 60.0604 1.69781 60.049 2.65515C60.0386 3.59543 59.3675 4.28074 58.4556 4.28263L58.4547 4.28168Z" fill="#9E8078"></path><path d="M36.1395 1.00393C37.0552 0.999191 37.767 1.69587 37.7708 2.60108C37.7746 3.55653 37.0883 4.27595 36.1689 4.28164C35.2343 4.28733 34.5556 3.5916 34.5547 2.62952C34.5547 1.6845 35.2135 1.00867 36.1395 1.00393V1.00393Z" fill="#9E8078"></path><path d="M7.16992 12.8569C7.17182 11.9621 8.46944 10.6749 9.35759 10.6996C9.74432 10.71 9.97939 10.8996 9.96802 11.3147C9.95001 11.9678 9.55569 12.4313 9.1083 12.8247C8.79835 13.0967 8.41162 13.3005 8.02869 13.4645C7.57277 13.6597 7.16898 13.3479 7.16992 12.8579V12.8569Z" fill="#9E8078"></path><path d="M15.669 13.9264C15.5932 14.0705 15.5174 14.443 15.3287 14.5131C15.0814 14.6041 14.6728 14.5539 14.4615 14.3946C13.7363 13.8458 13.3354 13.078 13.3562 12.1577C13.3619 11.9198 13.542 11.5681 13.7363 11.4837C13.9363 11.3965 14.3079 11.4961 14.5051 11.6449C15.2065 12.1728 15.5487 12.9216 15.669 13.9264V13.9264Z" fill="#9E8078"></path><path d="M12.3364 13.0819C12.2663 13.8431 12.18 14.4791 11.708 14.9796C11.3014 15.4099 10.78 15.3388 10.5999 14.7805C10.2976 13.8412 10.3715 12.9132 10.9971 12.1094C11.4141 11.5739 11.9279 11.6781 12.1668 12.3236C12.2672 12.5976 12.2976 12.8971 12.3374 13.0819H12.3364Z" fill="#9E8078"></path><path d="M6.64477 10.2584C6.46941 10.2148 6.16894 10.1759 5.89595 10.066C5.30733 9.82901 5.22582 9.26503 5.73292 8.89157C6.54335 8.29537 7.46467 8.2366 8.39263 8.50295C8.95566 8.66409 9.02011 9.26408 8.57083 9.64702C8.05045 10.0916 7.42107 10.2015 6.64477 10.2584Z" fill="#9E8078"></path><path d="M7.07218 5.06741C7.79256 5.10438 8.52146 5.50248 9.06554 6.21053C9.45795 6.72143 9.20298 7.2475 8.56317 7.32048C7.77834 7.41053 6.52337 6.77167 6.14138 6.08636C5.80205 5.47973 6.10821 5.06078 7.07218 5.06646V5.06741Z" fill="#9E8078"></path></svg>