<svg xmlns="http://www.w3.org/2000/svg" width="27" height="36" viewBox="0 0 27 36" fill="none"><path d="M13.8909 24.0138C12.1972 23.5826 11.7188 23.3399 11.8081 22.5673C11.8622 22.0981 12.2935 21.6528 12.8566 21.4838C13.9062 21.1706 15.2038 21.6756 15.8115 22.6345C16.0078 22.9444 16.4403 23.0495 16.7765 22.8675C17.1127 22.6865 17.2255 22.2878 17.0292 21.9779C16.4227 21.0211 15.3872 20.3721 14.2788 20.164V18.7966C14.2788 18.438 13.9626 18.1465 13.5735 18.1465C13.1845 18.1465 12.8683 18.438 12.8683 18.7966V20.1434C12.7179 20.1684 12.5674 20.203 12.4205 20.2464C11.3274 20.5736 10.5164 21.4502 10.4035 22.4286C10.1743 24.4148 12.1043 24.9067 13.5136 25.2653C15.1074 25.6717 15.8044 25.9404 15.7809 26.8105C15.7727 27.1019 15.5952 27.4086 15.3061 27.6285C14.9441 27.9037 14.4857 28.0067 14.1648 28.0446C13.0717 28.1725 11.9127 27.7282 11.211 26.9123C10.9689 26.6306 10.5258 26.584 10.2202 26.8072C9.91455 27.0304 9.86401 27.4389 10.1061 27.7206C10.8078 28.5354 11.7975 29.0815 12.8671 29.2809V30.6592C12.8671 31.0178 13.1833 31.3093 13.5724 31.3093C13.9614 31.3093 14.2776 31.0178 14.2776 30.6592V29.3394C14.2988 29.3373 14.3211 29.3362 14.3423 29.334C15.0675 29.2495 15.7116 29.0057 16.2041 28.6308C16.8035 28.1735 17.1726 27.505 17.1902 26.8419C17.2455 24.8688 15.3061 24.3747 13.8909 24.0138Z" fill="#FE7A80"></path><path d="M23.4792 35.1234H3.35417C1.50566 35.1234 0 33.7922 0 32.1547V18.3007C0 16.6632 1.50566 15.332 3.35417 15.332H23.4792C25.3277 15.332 26.8333 16.6632 26.8333 18.3007V32.1547C26.8333 33.7922 25.3277 35.1234 23.4792 35.1234ZM3.35417 17.3112C2.73836 17.3112 2.23611 17.7545 2.23611 18.3007V32.1547C2.23611 32.701 2.73836 33.1443 3.35417 33.1443H23.4792C24.095 33.1443 24.5972 32.701 24.5972 32.1547V18.3007C24.5972 17.7545 24.095 17.3112 23.4792 17.3112H3.35417Z" fill="#30302F"></path><path d="M21.1706 15.6705C20.5556 15.6705 20.0564 15.1753 20.0564 14.5652V9.03909C20.0564 5.38288 17.057 2.40772 13.371 2.40772C9.68493 2.40772 6.68551 5.38288 6.68551 9.03909V14.5652C6.68551 15.1753 6.18633 15.6705 5.57127 15.6705C4.95621 15.6705 4.45703 15.1753 4.45703 14.5652V9.03909C4.45703 4.1627 8.4548 0.197266 13.371 0.197266C18.2871 0.197266 22.2849 4.1627 22.2849 9.03909V14.5652C22.2849 15.1753 21.7857 15.6705 21.1706 15.6705Z" fill="#30302F"></path></svg>