<svg xmlns="http://www.w3.org/2000/svg" width="190" height="21" viewBox="0 0 190 21" fill="none"><path d="M85.3455 1.99625V17.8001H83.7688V1.99625H85.3455ZM99.3791 8.33561H97.6242C97.5741 8.04782 97.4818 7.79286 97.3473 7.57076C97.2128 7.34553 97.0454 7.15471 96.8452 6.99829C96.645 6.84188 96.4167 6.72457 96.1602 6.64637C95.9068 6.56503 95.633 6.52437 95.339 6.52437C94.8166 6.52437 94.3536 6.65575 93.9501 6.91852C93.5465 7.17817 93.2306 7.55981 93.0022 8.06346C92.7738 8.56397 92.6597 9.17554 92.6597 9.89816C92.6597 10.6333 92.7738 11.2527 93.0022 11.7563C93.2337 12.2568 93.5496 12.6354 93.9501 12.8919C94.3536 13.1453 94.815 13.272 95.3343 13.272C95.6221 13.272 95.8911 13.2344 96.1414 13.1593C96.3948 13.0811 96.6216 12.967 96.8218 12.8168C97.0251 12.6666 97.1956 12.4821 97.3332 12.2631C97.474 12.0441 97.571 11.7939 97.6242 11.5123L99.3791 11.5217C99.3134 11.9784 99.1711 12.407 98.9521 12.8074C98.7363 13.2078 98.4531 13.5613 98.1028 13.8679C97.7524 14.1713 97.3426 14.4091 96.8734 14.5811C96.4042 14.75 95.8833 14.8345 95.3108 14.8345C94.4662 14.8345 93.7123 14.639 93.0491 14.248C92.3859 13.8569 91.8635 13.2923 91.4819 12.554C91.1002 11.8158 90.9094 10.9305 90.9094 9.89816C90.9094 8.86272 91.1018 7.97743 91.4866 7.2423C91.8713 6.50403 92.3953 5.93939 93.0585 5.54836C93.7217 5.15733 94.4725 4.96182 95.3108 4.96182C95.8458 4.96182 96.3432 5.03689 96.803 5.18705C97.2629 5.3372 97.6727 5.55774 98.0324 5.84867C98.3921 6.13647 98.6878 6.48996 98.9193 6.90914C99.1539 7.32519 99.3072 7.80069 99.3791 8.33561ZM104.042 14.8439C103.338 14.8439 102.728 14.689 102.212 14.3794C101.696 14.0697 101.296 13.6364 101.011 13.0796C100.729 12.5227 100.589 11.8721 100.589 11.1276C100.589 10.383 100.729 9.7308 101.011 9.17085C101.296 8.6109 101.696 8.17607 102.212 7.86638C102.728 7.55668 103.338 7.40184 104.042 7.40184C104.746 7.40184 105.356 7.55668 105.872 7.86638C106.388 8.17607 106.787 8.6109 107.069 9.17085C107.353 9.7308 107.496 10.383 107.496 11.1276C107.496 11.8721 107.353 12.5227 107.069 13.0796C106.787 13.6364 106.388 14.0697 105.872 14.3794C105.356 14.689 104.746 14.8439 104.042 14.8439ZM104.052 13.4831C104.433 13.4831 104.752 13.3783 105.009 13.1687C105.265 12.956 105.456 12.6713 105.581 12.3147C105.709 11.9581 105.774 11.5608 105.774 11.1229C105.774 10.6818 105.709 10.2829 105.581 9.92632C105.456 9.56657 105.265 9.28034 105.009 9.06762C104.752 8.8549 104.433 8.74854 104.052 8.74854C103.66 8.74854 103.335 8.8549 103.075 9.06762C102.819 9.28034 102.627 9.56657 102.498 9.92632C102.373 10.2829 102.311 10.6818 102.311 11.1229C102.311 11.5608 102.373 11.9581 102.498 12.3147C102.627 12.6713 102.819 12.956 103.075 13.1687C103.335 13.3783 103.66 13.4831 104.052 13.4831ZM108.937 14.7031V7.49568H110.561V8.72038H110.645C110.796 8.30746 111.044 7.98525 111.392 7.75376C111.739 7.51914 112.153 7.40184 112.635 7.40184C113.123 7.40184 113.534 7.52071 113.869 7.75845C114.207 7.99307 114.445 8.31371 114.582 8.72038H114.657C114.817 8.31997 115.086 8.00089 115.464 7.76315C115.846 7.52227 116.298 7.40184 116.821 7.40184C117.484 7.40184 118.025 7.61143 118.444 8.03061C118.863 8.44979 119.073 9.06136 119.073 9.86532V14.7031H117.37V10.1281C117.37 9.68075 117.251 9.35385 117.013 9.14739C116.775 8.9378 116.484 8.833 116.14 8.833C115.73 8.833 115.41 8.96126 115.178 9.21777C114.95 9.47116 114.836 9.80119 114.836 10.2079V14.7031H113.17V10.0577C113.17 9.68544 113.057 9.38826 112.832 9.16616C112.61 8.94405 112.319 8.833 111.959 8.833C111.715 8.833 111.493 8.89557 111.293 9.02069C111.093 9.1427 110.933 9.31631 110.814 9.54155C110.695 9.76365 110.636 10.0233 110.636 10.3205V14.7031H108.937ZM120.796 17.4059V7.49568H122.467V8.68754H122.565C122.653 8.51236 122.776 8.32623 122.936 8.12915C123.095 7.92894 123.311 7.75845 123.583 7.61768C123.856 7.47379 124.203 7.40184 124.625 7.40184C125.182 7.40184 125.684 7.54417 126.131 7.82884C126.582 8.11038 126.938 8.528 127.201 9.0817C127.467 9.63226 127.6 10.308 127.6 11.1088C127.6 11.9002 127.47 12.5728 127.211 13.1265C126.951 13.6802 126.597 14.1025 126.15 14.3934C125.703 14.6844 125.196 14.8298 124.63 14.8298C124.217 14.8298 123.874 14.761 123.602 14.6234C123.33 14.4857 123.111 14.3199 122.945 14.126C122.783 13.9289 122.656 13.7428 122.565 13.5676H122.495V17.4059H120.796ZM122.462 11.0994C122.462 11.5655 122.528 11.9737 122.659 12.3241C122.794 12.6745 122.986 12.9482 123.236 13.1453C123.49 13.3392 123.796 13.4362 124.156 13.4362C124.531 13.4362 124.846 13.3361 125.099 13.1359C125.352 12.9325 125.543 12.6557 125.671 12.3053C125.803 11.9518 125.869 11.5499 125.869 11.0994C125.869 10.6521 125.804 10.2548 125.676 9.90755C125.548 9.56031 125.357 9.28816 125.104 9.09108C124.85 8.894 124.534 8.79546 124.156 8.79546C123.793 8.79546 123.485 8.89087 123.231 9.0817C122.978 9.27252 122.786 9.53998 122.654 9.88409C122.526 10.2282 122.462 10.6333 122.462 11.0994ZM129.055 14.7031V7.49568H130.702V8.69692H130.777C130.908 8.28087 131.133 7.96023 131.452 7.73499C131.775 7.50663 132.142 7.39245 132.555 7.39245C132.649 7.39245 132.754 7.39714 132.87 7.40653C132.988 7.41278 133.087 7.42373 133.165 7.43937V9.00193C133.093 8.9769 132.979 8.955 132.823 8.93623C132.669 8.91433 132.521 8.90339 132.377 8.90339C132.067 8.90339 131.789 8.97064 131.542 9.10516C131.298 9.23654 131.105 9.41954 130.964 9.65416C130.824 9.88878 130.753 10.1594 130.753 10.4659V14.7031H129.055ZM136.239 14.8486C135.782 14.8486 135.371 14.7673 135.005 14.6046C134.642 14.4388 134.354 14.1948 134.141 13.8726C133.932 13.5504 133.827 13.1531 133.827 12.6807C133.827 12.2741 133.902 11.9378 134.052 11.6719C134.202 11.406 134.407 11.1933 134.667 11.0337C134.926 10.8742 135.219 10.7537 135.544 10.6724C135.873 10.5879 136.212 10.5269 136.562 10.4894C136.985 10.4456 137.327 10.4065 137.59 10.3721C137.853 10.3346 138.044 10.2782 138.163 10.2032C138.285 10.125 138.346 10.0045 138.346 9.84186V9.8137C138.346 9.46021 138.241 9.18649 138.031 8.99254C137.822 8.79859 137.52 8.70162 137.126 8.70162C136.709 8.70162 136.379 8.79233 136.135 8.97377C135.895 9.15521 135.732 9.36949 135.647 9.61662L134.061 9.39139C134.187 8.95344 134.393 8.58743 134.681 8.29338C134.969 7.9962 135.321 7.77409 135.737 7.62707C136.153 7.47691 136.612 7.40184 137.116 7.40184C137.463 7.40184 137.809 7.4425 138.153 7.52384C138.497 7.60517 138.812 7.73968 139.096 7.92738C139.381 8.11194 139.609 8.36377 139.781 8.68285C139.957 9.00193 140.044 9.40077 140.044 9.87939V14.7031H138.411V13.713H138.355C138.252 13.9132 138.106 14.1009 137.919 14.2761C137.734 14.4482 137.501 14.5874 137.219 14.6937C136.941 14.797 136.614 14.8486 136.239 14.8486ZM136.68 13.6004C137.021 13.6004 137.316 13.5332 137.567 13.3987C137.817 13.261 138.009 13.0796 138.144 12.8543C138.281 12.6291 138.35 12.3835 138.35 12.1176V11.2683C138.297 11.3121 138.206 11.3528 138.078 11.3903C137.953 11.4279 137.812 11.4607 137.656 11.4889C137.499 11.517 137.344 11.542 137.191 11.5639C137.038 11.5858 136.905 11.6046 136.792 11.6203C136.539 11.6547 136.312 11.711 136.112 11.7892C135.912 11.8674 135.754 11.9769 135.638 12.1176C135.522 12.2553 135.464 12.4336 135.464 12.6526C135.464 12.9654 135.579 13.2016 135.807 13.3611C136.035 13.5207 136.326 13.6004 136.68 13.6004ZM150.726 9.40077L149.178 9.5697C149.134 9.41329 149.057 9.26626 148.948 9.12862C148.842 8.99098 148.698 8.87992 148.516 8.79546C148.335 8.711 148.113 8.66877 147.85 8.66877C147.496 8.66877 147.199 8.74541 146.958 8.89869C146.721 9.05198 146.603 9.25062 146.606 9.49462C146.603 9.70421 146.68 9.8747 146.836 10.0061C146.996 10.1375 147.259 10.2454 147.625 10.3299L148.854 10.5926C149.536 10.7397 150.043 10.9727 150.374 11.2918C150.709 11.6109 150.878 12.0285 150.881 12.5446C150.878 12.9982 150.745 13.3987 150.482 13.7459C150.223 14.09 149.861 14.359 149.398 14.553C148.935 14.7469 148.404 14.8439 147.803 14.8439C146.921 14.8439 146.211 14.6593 145.673 14.2902C145.135 13.9179 144.814 13.4002 144.711 12.737L146.367 12.5775C146.442 12.9028 146.602 13.1484 146.846 13.3142C147.09 13.48 147.407 13.5629 147.798 13.5629C148.202 13.5629 148.526 13.48 148.77 13.3142C149.017 13.1484 149.14 12.9435 149.14 12.6995C149.14 12.493 149.06 12.3225 148.901 12.188C148.745 12.0535 148.501 11.9503 148.169 11.8783L146.94 11.6203C146.248 11.4764 145.737 11.2339 145.405 10.8929C145.074 10.5488 144.909 10.114 144.912 9.58847C144.909 9.14426 145.03 8.75949 145.274 8.43415C145.521 8.10569 145.863 7.8523 146.301 7.67399C146.742 7.49255 147.251 7.40184 147.826 7.40184C148.671 7.40184 149.336 7.58171 149.821 7.94146C150.309 8.3012 150.611 8.78764 150.726 9.40077ZM155.473 14.8439C154.75 14.8439 154.126 14.6937 153.6 14.3934C153.078 14.09 152.676 13.6614 152.394 13.1077C152.113 12.5509 151.972 11.8955 151.972 11.1416C151.972 10.4002 152.113 9.74957 152.394 9.18962C152.679 8.62654 153.076 8.18859 153.586 7.87576C154.096 7.55981 154.695 7.40184 155.383 7.40184C155.828 7.40184 156.247 7.47379 156.641 7.61768C157.038 7.75845 157.389 7.97743 157.692 8.27461C157.999 8.57179 158.239 8.95031 158.415 9.41016C158.59 9.86688 158.677 10.4112 158.677 11.0431V11.5639H152.77V10.419H157.049C157.046 10.0937 156.976 9.80432 156.838 9.55093C156.7 9.29442 156.508 9.09264 156.261 8.94562C156.017 8.79859 155.732 8.72508 155.407 8.72508C155.06 8.72508 154.755 8.80954 154.492 8.97846C154.229 9.14426 154.024 9.36324 153.877 9.63539C153.733 9.90442 153.66 10.2 153.657 10.5222V11.5217C153.657 11.9409 153.733 12.3006 153.887 12.601C154.04 12.8981 154.254 13.1265 154.529 13.286C154.805 13.4424 155.127 13.5207 155.496 13.5207C155.743 13.5207 155.967 13.4862 156.167 13.4174C156.367 13.3455 156.541 13.2407 156.688 13.103C156.835 12.9654 156.946 12.7949 157.021 12.5916L158.607 12.7699C158.507 13.1891 158.316 13.5551 158.035 13.8679C157.756 14.1776 157.4 14.4185 156.965 14.5905C156.53 14.7594 156.033 14.8439 155.473 14.8439ZM163.249 17.5561C162.639 17.5561 162.115 17.4732 161.677 17.3074C161.239 17.1447 160.887 16.9257 160.621 16.6504C160.355 16.3752 160.171 16.0702 160.068 15.7354L161.597 15.3647C161.666 15.5055 161.766 15.6447 161.898 15.7824C162.029 15.9231 162.206 16.0389 162.428 16.1296C162.653 16.2234 162.936 16.2704 163.277 16.2704C163.759 16.2704 164.158 16.1531 164.474 15.9184C164.79 15.687 164.948 15.3053 164.948 14.7735V13.408H164.863C164.776 13.5832 164.647 13.7631 164.478 13.9477C164.313 14.1322 164.092 14.2871 163.817 14.4122C163.545 14.5373 163.202 14.5999 162.789 14.5999C162.235 14.5999 161.733 14.4701 161.283 14.2104C160.836 13.9477 160.479 13.5566 160.213 13.0373C159.95 12.5149 159.819 11.8611 159.819 11.0759C159.819 10.2845 159.95 9.61662 160.213 9.07231C160.479 8.52487 160.837 8.11038 161.288 7.82884C161.738 7.54417 162.24 7.40184 162.794 7.40184C163.216 7.40184 163.563 7.47379 163.836 7.61768C164.111 7.75845 164.33 7.92894 164.492 8.12915C164.655 8.32623 164.779 8.51236 164.863 8.68754H164.957V7.49568H166.632V14.8204C166.632 15.4367 166.485 15.9466 166.191 16.3501C165.897 16.7537 165.495 17.0556 164.985 17.2558C164.475 17.456 163.897 17.5561 163.249 17.5561ZM163.263 13.2673C163.623 13.2673 163.929 13.1797 164.183 13.0045C164.436 12.8293 164.629 12.5775 164.76 12.249C164.891 11.9206 164.957 11.5264 164.957 11.0666C164.957 10.613 164.891 10.2157 164.76 9.8747C164.632 9.53372 164.441 9.26939 164.187 9.0817C163.937 8.89087 163.629 8.79546 163.263 8.79546C162.885 8.79546 162.569 8.894 162.315 9.09108C162.062 9.28816 161.871 9.55875 161.743 9.90286C161.614 10.2438 161.55 10.6317 161.55 11.0666C161.55 11.5076 161.614 11.894 161.743 12.2256C161.874 12.554 162.066 12.8105 162.32 12.9951C162.576 13.1765 162.891 13.2673 163.263 13.2673ZM172.967 11.6719V7.49568H174.665V14.7031H173.018V13.4221H172.943C172.781 13.8257 172.513 14.1557 172.141 14.4122C171.772 14.6687 171.317 14.797 170.775 14.797C170.303 14.797 169.885 14.6922 169.523 14.4826C169.163 14.2699 168.881 13.9617 168.678 13.5582C168.475 13.1515 168.373 12.6604 168.373 12.0848V7.49568H170.072V11.822C170.072 12.2787 170.197 12.6416 170.447 12.9106C170.697 13.1797 171.026 13.3142 171.432 13.3142C171.683 13.3142 171.925 13.2532 172.16 13.1312C172.394 13.0092 172.587 12.8278 172.737 12.5869C172.89 12.3429 172.967 12.0379 172.967 11.6719ZM176.412 14.7031V7.49568H178.059V8.69692H178.134C178.266 8.28087 178.491 7.96023 178.81 7.73499C179.132 7.50663 179.5 7.39245 179.913 7.39245C180.006 7.39245 180.111 7.39714 180.227 7.40653C180.346 7.41278 180.444 7.42373 180.523 7.43937V9.00193C180.451 8.9769 180.337 8.955 180.18 8.93623C180.027 8.91433 179.878 8.90339 179.734 8.90339C179.425 8.90339 179.146 8.97064 178.899 9.10516C178.655 9.23654 178.463 9.41954 178.322 9.65416C178.181 9.88878 178.111 10.1594 178.111 10.4659V14.7031H176.412ZM183.596 14.8486C183.139 14.8486 182.728 14.7673 182.362 14.6046C181.999 14.4388 181.711 14.1948 181.499 13.8726C181.289 13.5504 181.184 13.1531 181.184 12.6807C181.184 12.2741 181.259 11.9378 181.41 11.6719C181.56 11.406 181.765 11.1933 182.024 11.0337C182.284 10.8742 182.576 10.7537 182.902 10.6724C183.23 10.5879 183.57 10.5269 183.92 10.4894C184.342 10.4456 184.685 10.4065 184.948 10.3721C185.21 10.3346 185.401 10.2782 185.52 10.2032C185.642 10.125 185.703 10.0045 185.703 9.84186V9.8137C185.703 9.46021 185.598 9.18649 185.389 8.99254C185.179 8.79859 184.877 8.70162 184.483 8.70162C184.067 8.70162 183.737 8.79233 183.493 8.97377C183.252 9.15521 183.089 9.36949 183.005 9.61662L181.419 9.39139C181.544 8.95344 181.75 8.58743 182.038 8.29338C182.326 7.9962 182.678 7.77409 183.094 7.62707C183.51 7.47691 183.97 7.40184 184.474 7.40184C184.821 7.40184 185.167 7.4425 185.511 7.52384C185.855 7.60517 186.169 7.73968 186.454 7.92738C186.738 8.11194 186.967 8.36377 187.139 8.68285C187.314 9.00193 187.402 9.40077 187.402 9.87939V14.7031H185.769V13.713H185.712C185.609 13.9132 185.464 14.1009 185.276 14.2761C185.091 14.4482 184.858 14.5874 184.577 14.6937C184.298 14.797 183.972 14.8486 183.596 14.8486ZM184.037 13.6004C184.378 13.6004 184.674 13.5332 184.924 13.3987C185.174 13.261 185.367 13.0796 185.501 12.8543C185.639 12.6291 185.708 12.3835 185.708 12.1176V11.2683C185.655 11.3121 185.564 11.3528 185.436 11.3903C185.31 11.4279 185.17 11.4607 185.013 11.4889C184.857 11.517 184.702 11.542 184.549 11.5639C184.395 11.5858 184.262 11.6046 184.15 11.6203C183.896 11.6547 183.67 11.711 183.469 11.7892C183.269 11.8674 183.111 11.9769 182.996 12.1176C182.88 12.2553 182.822 12.4336 182.822 12.6526C182.822 12.9654 182.936 13.2016 183.164 13.3611C183.393 13.5207 183.684 13.6004 184.037 13.6004Z" fill="#9E8078"></path><path d="M5.91707 1.98167C5.34836 2.81579 4.79765 3.49162 4.39196 4.24612C3.1332 6.58165 2.90477 9.03188 3.84315 11.5304C4.97585 14.5465 7.12465 16.4698 10.2753 17.2119C13.3 17.9238 15.973 17.1503 18.3019 15.1475C18.6232 14.8717 18.8052 14.8821 19.0753 15.1655C19.5739 15.6897 20.0867 16.2006 20.609 16.7001C20.8649 16.9446 20.8516 17.1096 20.5881 17.3513C18.0317 19.6963 15.009 20.7958 11.5616 20.6053C8.57678 20.4404 5.97489 19.2792 3.82135 17.1977C2.10572 15.5399 0.992926 13.5266 0.437478 11.2044C-0.0355058 9.23282 0.0213659 7.26601 0.54743 5.32289C1.05643 3.44422 1.97586 1.77124 3.29813 0.330493C3.69623 -0.103629 3.73983 -0.103629 4.155 0.292578C4.75594 0.866035 5.35404 1.44234 5.91707 1.98262V1.98167Z" fill="#9E8078"></path><path d="M38.8031 5.38748C39.8116 5.38748 40.7074 5.37042 41.6003 5.40643C41.7301 5.41212 41.9112 5.65572 41.9642 5.82255C42.5879 7.79789 43.1908 9.77893 43.8031 11.7581C43.8325 11.8519 43.8941 11.9353 44.0021 12.141C44.2258 11.4026 44.4145 10.7837 44.6003 10.1647C45.0486 8.67561 45.4865 7.18273 45.9566 5.70027C46.0012 5.56094 46.2401 5.39885 46.3955 5.39222C47.1197 5.35999 47.8467 5.38937 48.5718 5.37326C48.9358 5.36568 48.9983 5.60169 49.0808 5.86994C49.677 7.82254 50.2817 9.77324 50.8855 11.7249C50.9225 11.8434 50.9708 11.9581 51.0561 12.1884C51.4192 11.0017 51.7509 9.91732 52.0817 8.83296C52.3841 7.84149 52.695 6.85287 52.9832 5.85762C53.0874 5.49743 53.277 5.35146 53.6609 5.36852C54.3064 5.39696 54.9538 5.37989 55.6012 5.3761C55.9177 5.37421 56.0808 5.44435 55.9405 5.8197C55.1945 7.81969 54.4618 9.82442 53.7301 11.8301C53.3756 12.8036 53.023 13.778 52.6912 14.7599C52.5566 15.159 52.3898 15.4007 51.896 15.3609C51.2372 15.3088 50.5718 15.3391 49.9092 15.3524C49.6344 15.358 49.4903 15.2775 49.4002 14.9931C48.9187 13.4822 48.4135 11.9789 47.914 10.4737C47.7661 10.0292 47.6097 9.58841 47.4287 9.06424C46.9889 10.4244 46.5775 11.7059 46.1614 12.9846C45.9377 13.6718 45.7244 14.3628 45.4666 15.0367C45.4135 15.1751 45.1879 15.3268 45.0353 15.3334C44.3112 15.3647 43.5841 15.3287 42.859 15.3562C42.5235 15.3685 42.3756 15.2197 42.2732 14.9391C41.86 13.8026 41.4391 12.6699 41.023 11.5344C40.3538 9.70499 39.6865 7.87467 39.0202 6.04435C38.9576 5.87183 38.9045 5.69553 38.8022 5.38748H38.8031Z" fill="#9E8078"></path><path d="M27.7494 11.4105C27.1996 12.0759 26.4053 12.4636 26.556 13.4712C26.6271 13.9489 26.556 14.4456 26.5722 14.9337C26.5816 15.2314 26.4878 15.3593 26.1703 15.3527C25.4451 15.3356 24.7191 15.3375 23.994 15.3527C23.7011 15.3584 23.5949 15.2314 23.5997 14.9631C23.6015 14.8683 23.5968 14.7745 23.5968 14.6797C23.5968 10.5707 23.5968 6.46079 23.5968 2.35181C23.5968 1.60868 23.5997 1.60773 24.3257 1.60679C24.8935 1.60679 25.4622 1.62574 26.029 1.6011C26.4385 1.58309 26.5797 1.72622 26.5769 2.14328C26.5598 4.20583 26.5693 6.26838 26.5693 8.33093C26.5693 8.50249 26.5693 8.67405 26.5693 8.9622C26.7589 8.78969 26.883 8.68732 26.9949 8.57263C27.9039 7.63425 28.7968 6.67975 29.7295 5.76411C29.9285 5.56885 30.2631 5.43141 30.5437 5.41341C31.2972 5.36601 32.0565 5.3954 32.8138 5.39919C32.9664 5.39919 33.1181 5.42478 33.3825 5.44848C33.0963 5.77738 32.8859 6.03805 32.6555 6.27975C31.7987 7.18022 30.9409 8.07974 30.0688 8.96505C29.8565 9.18116 29.8243 9.32903 29.9996 9.60391C31.1522 11.4039 32.2802 13.2191 33.4138 15.0304C33.4527 15.093 33.465 15.1717 33.5058 15.2911C33.3598 15.3129 33.2451 15.3451 33.1304 15.3461C32.247 15.3499 31.3636 15.3385 30.4811 15.3546C30.1892 15.3603 30.0309 15.2503 29.8859 15.002C29.2072 13.8352 28.5067 12.6807 27.7484 11.4124L27.7494 11.4105Z" fill="#9E8078"></path><path d="M69.5202 15.9823C69.8928 16.1387 70.1733 16.279 70.4691 16.3757C71.2861 16.6439 72.3212 15.9729 72.3089 15.1264C72.3032 14.7567 72.0795 14.3842 71.9269 14.025C71.1638 12.2326 70.3904 10.4459 69.6217 8.65535C69.2501 7.78995 68.8795 6.92455 68.5155 6.05536C68.4397 5.87337 68.3951 5.67906 68.2994 5.37385C68.7525 5.37385 69.1221 5.37385 69.4918 5.37385C69.9809 5.37385 70.4728 5.34541 70.9572 5.39186C71.1297 5.40797 71.3743 5.57101 71.4359 5.72551C72.0596 7.30086 72.6501 8.89042 73.2548 10.4734C73.4264 10.9226 73.6122 11.3662 73.9022 11.8146C74.0795 11.3198 74.2615 10.826 74.433 10.3293C74.9562 8.81554 75.4842 7.30275 75.9904 5.78333C76.0946 5.46958 76.2662 5.36627 76.5771 5.37101C77.3742 5.38238 78.1704 5.3748 79.0918 5.3748C78.8093 6.11792 78.5799 6.74351 78.3354 7.36342C77.5761 9.29137 76.8178 11.2203 76.0453 13.1435C75.5126 14.4686 75.0074 15.8079 74.3942 17.0961C73.8188 18.3065 72.7942 18.951 71.4311 19.0335C70.4074 19.0951 69.4501 18.9264 68.6217 18.2875C68.5079 18.1994 68.3667 17.9624 68.4084 17.8856C68.762 17.2307 69.1553 16.5956 69.5212 15.9814L69.5202 15.9823Z" fill="#9E8078"></path><path d="M68.4332 4.27376C67.8948 4.17139 67.4257 4.01784 66.9527 4.00741C66.2446 3.9913 65.6958 5.02541 66.0655 5.62826C66.1205 5.71735 66.3024 5.76285 66.4285 5.76759C66.9167 5.78465 67.4058 5.78465 67.8939 5.77423C68.2181 5.76759 68.3451 5.90219 68.3318 6.22636C68.3138 6.66617 68.3166 7.10787 68.3299 7.54768C68.3384 7.83488 68.2105 7.94294 67.9356 7.93915C67.4626 7.93346 66.9887 7.96 66.5176 7.93346C66.1157 7.91071 66.0067 8.07564 66.0095 8.45573C66.0228 10.5334 66.0162 12.6112 66.0152 14.6879C66.0152 15.3439 66.0124 15.3448 65.3792 15.3448C64.7641 15.3448 64.1489 15.3239 63.5347 15.3524C63.1555 15.3704 63.0513 15.2377 63.0541 14.869C63.0693 12.76 63.0465 10.651 63.0721 8.54199C63.0778 8.07185 62.966 7.90408 62.4759 7.92777C61.7413 7.96474 61.7404 7.93346 61.7394 7.17706C61.7394 6.86237 61.7527 6.54673 61.7366 6.23299C61.7205 5.91356 61.8475 5.78655 62.1717 5.77044C63.0541 5.72778 63.0541 5.71641 63.0617 4.85764C63.0788 3.01121 64.3821 1.67472 66.3375 1.50316C67.2863 1.41974 68.1821 1.6188 69.0446 2.00837C69.3451 2.14391 69.4465 2.29936 69.2645 2.62448C68.9584 3.17139 68.6967 3.74201 68.4313 4.27186L68.4332 4.27376Z" fill="#9E8078"></path><path d="M60.0722 10.4064C60.0722 11.8869 60.0618 13.3684 60.0798 14.849C60.0845 15.2452 59.948 15.3713 59.5594 15.3561C58.8817 15.3305 58.2021 15.3362 57.5243 15.3542C57.1916 15.3627 57.0343 15.2698 57.0353 14.9068C57.0438 11.8822 57.0419 8.85755 57.0371 5.83292C57.0371 5.51159 57.1717 5.37415 57.4893 5.37605C58.1992 5.38173 58.9092 5.38553 59.6191 5.3751C59.9736 5.37036 60.0788 5.53624 60.076 5.86894C60.0656 7.38078 60.0713 8.89357 60.0713 10.4064H60.0722Z" fill="#9E8078"></path><path d="M37.7542 10.3523C37.7542 11.8481 37.7447 13.3428 37.7608 14.8386C37.7646 15.2206 37.6528 15.3722 37.2509 15.3561C36.5741 15.3277 35.8945 15.3371 35.2177 15.3533C34.904 15.3608 34.7618 15.2708 34.7627 14.9305C34.7713 11.8926 34.7703 8.85471 34.7646 5.81681C34.7646 5.52013 34.8755 5.37795 35.176 5.3789C35.9011 5.38174 36.6262 5.38459 37.3523 5.37701C37.7049 5.37321 37.7599 5.577 37.758 5.86705C37.7523 7.36278 37.7552 8.85756 37.7552 10.3533L37.7542 10.3523Z" fill="#9E8078"></path><path d="M58.5708 4.28168C57.6514 4.28358 56.9386 3.55752 56.9443 2.62577C56.95 1.70729 57.6419 1.00871 58.549 1.00587C59.495 1.00302 60.1765 1.69781 60.1652 2.65515C60.1547 3.59543 59.4836 4.28074 58.5718 4.28263L58.5708 4.28168Z" fill="#9E8078"></path><path d="M36.2544 1.00393C37.17 0.999191 37.8818 1.69587 37.8856 2.60108C37.8894 3.55653 37.2032 4.27595 36.2837 4.28164C35.3492 4.28733 34.6705 3.5916 34.6695 2.62952C34.6695 1.6845 35.3283 1.00867 36.2544 1.00393Z" fill="#9E8078"></path><path d="M7.28501 12.8569C7.2869 11.9621 8.58453 10.6749 9.47267 10.6996C9.8594 10.71 10.0945 10.8996 10.0831 11.3147C10.0651 11.9678 9.67078 12.4313 9.22338 12.8247C8.91343 13.0967 8.52671 13.3005 8.14377 13.4645C7.68785 13.6597 7.28406 13.3479 7.28501 12.8579V12.8569Z" fill="#9E8078"></path><path d="M15.7843 13.9264C15.7085 14.0705 15.6327 14.443 15.444 14.5131C15.1966 14.6041 14.7881 14.5539 14.5767 14.3946C13.8516 13.8458 13.4507 13.078 13.4715 12.1577C13.4772 11.9198 13.6573 11.5681 13.8516 11.4837C14.0516 11.3965 14.4232 11.4961 14.6203 11.6449C15.3218 12.1728 15.6639 12.9216 15.7843 13.9264Z" fill="#9E8078"></path><path d="M12.4518 13.0819C12.3816 13.8431 12.2954 14.4791 11.8233 14.9796C11.4167 15.4099 10.8954 15.3388 10.7153 14.7805C10.4129 13.8412 10.4868 12.9132 11.1124 12.1094C11.5295 11.5739 12.0432 11.6781 12.2821 12.3236C12.3826 12.5976 12.4129 12.8971 12.4527 13.0819H12.4518Z" fill="#9E8078"></path><path d="M6.75903 10.2584C6.58368 10.2148 6.2832 10.1759 6.01022 10.066C5.4216 9.82901 5.34008 9.26503 5.84719 8.89157C6.65761 8.29537 7.57893 8.2366 8.50689 8.50295C9.06992 8.66409 9.13438 9.26408 8.68509 9.64702C8.16471 10.0916 7.53533 10.2015 6.75903 10.2584Z" fill="#9E8078"></path><path d="M7.18835 5.06741C7.90873 5.10438 8.63764 5.50248 9.18171 6.21053C9.57413 6.72143 9.31915 7.2475 8.67934 7.32048C7.89451 7.41053 6.63954 6.77167 6.25755 6.08636C5.91822 5.47973 6.22438 5.06078 7.18835 5.06646V5.06741Z" fill="#9E8078"></path></svg>