<svg xmlns="http://www.w3.org/2000/svg" width="49" height="48" viewBox="0 0 49 48" fill="none"><path d="M34.129 29.2785H22.3655C22.2625 29.2785 22.1594 29.26 22.0634 29.2245L16.5296 27.1624C16.1946 27.0374 15.9727 26.7193 15.9727 26.3642V13.4348C15.9727 12.9647 16.3578 12.5826 16.8317 12.5826H19.7354C22.2481 11.3883 23.6284 9.37157 23.6284 6.8848V1.07477C23.6284 0.604689 24.0135 0.222656 24.4874 0.222656C27.5672 0.222656 30.0728 2.70658 30.0728 5.76001V11.0034H35.3274C37.8202 11.0034 39.8733 12.9348 40.0022 15.4003C40.0051 15.46 40.0022 15.521 39.9922 15.5793L38.2669 26.2449C38.2583 26.2946 38.2468 26.3429 38.2297 26.3912C37.6212 28.1182 35.9732 29.2785 34.129 29.2785ZM22.5202 27.5742H34.1276C35.2201 27.5742 36.1965 26.9025 36.5831 25.897L38.2798 15.406C38.1566 13.8864 36.8752 12.709 35.326 12.709H29.2123C28.7384 12.709 28.3532 12.327 28.3532 11.8569V5.76143C28.3532 3.94073 27.0661 2.41118 25.3451 2.02347V6.8848C25.3451 10.0859 23.4995 12.7559 20.2809 14.2102C20.1692 14.2613 20.0475 14.2869 19.9244 14.2869H17.6894V25.7734L22.5202 27.5742Z" fill="#30302F"></path><path d="M16.8317 27.2157H11.1833C10.7094 27.2157 10.3242 26.8337 10.3242 26.3636V13.4341C10.3242 12.9641 10.7094 12.582 11.1833 12.582H16.8317C17.3056 12.582 17.6907 12.9641 17.6907 13.4341V26.3636C17.6907 26.8351 17.3056 27.2157 16.8317 27.2157ZM12.0409 25.5115H15.9712V14.2863H12.0409V25.5115V25.5115Z" fill="#30302F"></path><path d="M11.8636 47.1232C11.7319 47.1232 11.5987 47.0933 11.4756 47.0309L7.99352 45.284L4.51143 47.0309C4.22078 47.1771 3.87286 47.1473 3.61084 46.9542C3.35026 46.761 3.21997 46.4386 3.27724 46.1205L3.93443 42.4621L1.14389 39.8645C0.90335 39.6401 0.813147 39.2979 0.913372 38.9854C1.0136 38.673 1.28563 38.4443 1.61351 38.3989L5.49793 37.8606L7.22895 34.5118C7.37642 34.2278 7.67137 34.0488 7.99352 34.0488C8.31567 34.0488 8.61062 34.2278 8.75809 34.5118L10.4891 37.8606L14.3735 38.3989C14.7014 38.4443 14.9734 38.673 15.0737 38.9854C15.1739 39.2979 15.0837 39.6401 14.8432 39.8645L12.0526 42.4621L12.7098 46.1205C12.7671 46.4386 12.6382 46.761 12.3762 46.9542C12.2244 47.0664 12.044 47.1232 11.8636 47.1232ZM7.99352 43.4761C8.12668 43.4761 8.25983 43.5073 8.38153 43.5684L10.7153 44.7401L10.2786 42.3073C10.2271 42.0232 10.3245 41.7335 10.5364 41.5361L12.3576 39.8418L9.80902 39.4882C9.53268 39.4498 9.29071 39.2794 9.16328 39.0323L7.99352 36.7685L6.82376 39.0323C6.69633 39.2794 6.45579 39.4484 6.17802 39.4882L3.62946 39.8418L5.45068 41.5361C5.66258 41.7335 5.75994 42.0232 5.7084 42.3073L5.27171 44.7401L7.60551 43.5684C7.72721 43.5073 7.86036 43.4761 7.99352 43.4761Z" fill="#FE7A80"></path><path d="M28.7133 47.1232C28.5758 47.1232 28.4398 47.0905 28.3138 47.0252L24.9892 45.2911L21.6646 47.0252C21.3754 47.1757 21.0246 47.1516 20.7597 46.9598C20.4948 46.7695 20.3631 46.4457 20.4175 46.1262L21.0532 42.4536L18.3629 39.8532C18.1281 39.6274 18.0451 39.2879 18.1453 38.9798C18.2469 38.6716 18.5147 38.4458 18.8383 38.4003L22.5552 37.8649L24.2175 34.5232C24.3621 34.232 24.6613 34.0488 24.9878 34.0488C25.3142 34.0488 25.6134 34.2335 25.7581 34.5232L27.4204 37.8649L31.1373 38.4003C31.4608 38.4472 31.73 38.6716 31.8302 38.9798C31.9319 39.2879 31.8474 39.6274 31.6126 39.8532L28.9223 42.4536L29.5566 46.1262C29.6124 46.4457 29.4793 46.7695 29.2144 46.9598C29.0683 47.0678 28.8922 47.1232 28.7133 47.1232ZM24.9892 43.4761C25.1266 43.4761 25.2641 43.5088 25.3887 43.5741L27.5721 44.7131L27.1555 42.3016C27.1082 42.0247 27.1999 41.7435 27.4032 41.5475L29.17 39.839L26.7288 39.4868C26.4496 39.447 26.2076 39.2723 26.0816 39.0209L24.9892 36.8267L23.8967 39.0209C23.7722 39.2723 23.5302 39.447 23.2496 39.4868L20.8084 39.839L22.5752 41.5475C22.7771 41.7435 22.8702 42.0247 22.8229 42.3016L22.4063 44.7131L24.5897 43.5741C24.7143 43.5088 24.8517 43.4761 24.9892 43.4761Z" fill="#FE7A80"></path><path d="M38.2578 47.1232C38.0802 47.1232 37.9027 47.0678 37.7524 46.9598C37.4875 46.7695 37.3558 46.4457 37.4102 46.1262L38.0444 42.4536L35.3541 39.8532C35.1193 39.6274 35.0363 39.2879 35.1365 38.9798C35.2382 38.6716 35.5059 38.4458 35.8295 38.4003L39.5464 37.8649L41.2087 34.5232C41.3533 34.232 41.6525 34.0488 41.979 34.0488C42.3054 34.0488 42.6047 34.2335 42.7493 34.5232L44.4116 37.8649L48.1285 38.4003C48.452 38.4472 48.7212 38.6716 48.8214 38.9798C48.9231 39.2879 48.8386 39.6274 48.6038 39.8532L45.9135 42.4536L46.5492 46.1262C46.605 46.4457 46.4719 46.7695 46.207 46.9598C45.9421 47.1502 45.5914 47.1757 45.3021 47.0252L41.9775 45.2911L38.653 47.0252C38.5327 47.0905 38.3952 47.1232 38.2578 47.1232ZM37.8025 39.839L39.5693 41.5475C39.7712 41.7435 39.8642 42.0247 39.817 42.3016L39.4003 44.7131L41.5838 43.5741C41.8344 43.4434 42.1336 43.4434 42.3827 43.5741L44.5662 44.7131L44.1495 42.3016C44.1023 42.0247 44.1939 41.7435 44.3972 41.5475L46.1641 39.839L43.7229 39.4868C43.4437 39.447 43.2017 39.2723 43.0757 39.0209L41.9833 36.8267L40.8908 39.0209C40.7663 39.2723 40.5243 39.447 40.2437 39.4868L37.8025 39.839Z" fill="#FE7A80"></path></svg>