<svg xmlns="http://www.w3.org/2000/svg" width="231" height="97" viewBox="0 0 231 97" fill="none"><path fill-rule="evenodd" clip-rule="evenodd" d="M33.2569 0.245537C33.4355 0.422639 33.5076 1.70461 33.5076 4.69898C33.5076 8.62774 33.4802 8.93099 33.0898 9.31813C32.86 9.54598 32.672 9.77901 32.672 9.83597C32.672 9.89293 33.33 9.93954 34.1343 9.93954C34.9699 9.93954 35.5966 9.85068 35.5966 9.7324C35.5966 9.61848 35.4618 9.52526 35.2972 9.52526C34.7921 9.52526 34.7209 8.81851 34.7944 4.53306C34.8723 8.02543e-05 34.874 0.00650148 33.6225 8.02362e-05C33.1432 -0.00240541 33.062 0.0522786 33.2569 0.245537ZM25.7782 3.5386C24.6059 4.21987 24.228 4.89017 24.1548 6.41718C24.0792 7.9997 24.5885 9.09877 25.76 9.88154C27.2485 10.8762 29.7757 10.2608 30.6134 8.70003C31.4752 7.0941 30.8668 4.39635 29.4467 3.52617C28.5148 2.95489 26.772 2.96089 25.7782 3.5386ZM28.4641 3.83584C29.8791 5.01652 30.1334 8.73628 28.8593 9.62117C28.3243 9.99277 27.3926 10.0348 26.7893 9.71459C26.2695 9.43889 25.6516 8.08815 25.464 6.81778C25.195 4.99539 26.1041 3.31116 27.3571 3.31116C27.6201 3.31116 28.1181 3.5473 28.4641 3.83584ZM38.5603 3.6287C37.8761 4.11817 37.5847 4.95686 37.967 5.33613C38.4456 5.81068 39.0284 5.46269 39.3631 4.50261C39.6098 3.79483 39.7804 3.60923 40.2319 3.55745C41.0798 3.46051 41.6547 4.1453 41.6547 5.25245V6.15784L40.0332 6.25085C38.9981 6.3103 38.2166 6.47083 37.8719 6.69474C36.8842 7.33645 36.5448 8.79387 37.1752 9.68621C37.596 10.2819 38.8916 10.3 40.1629 9.72784C41.2392 9.24356 41.2534 9.24149 41.1214 9.58306C40.971 9.97123 41.4654 10.4918 42.13 10.6448C42.657 10.7664 42.6988 10.7347 42.5879 10.2964C42.5206 10.0313 42.6154 8.89143 42.7987 7.76315C43.187 5.37072 43.1091 4.82243 42.2676 4.02309C41.7489 3.53031 41.4343 3.42157 40.3455 3.35839C39.37 3.30205 38.9223 3.36978 38.5603 3.6287ZM18.0507 5.35249C17.6242 5.57952 17.1263 6.10979 16.8356 6.6471C15.7677 8.62091 16.9475 11.3905 19.1354 12.0459C20.8122 12.5482 22.8745 11.3369 22.8365 9.8718L22.8195 9.21456L22.5292 9.8718C21.9618 11.1561 20.7984 11.5171 19.5876 10.7849C18.0854 9.87678 17.0988 7.69231 17.6235 6.43644C18.1671 5.135 19.3697 5.08218 20.1448 6.32562C20.7059 7.22584 21.4579 7.26022 21.5594 6.39046C21.704 5.15323 19.5974 4.53016 18.0507 5.35249ZM41.506 6.57357C41.5526 6.65911 41.4876 7.23164 41.3616 7.84601C41.164 8.80961 41.0324 9.01592 40.4046 9.34775C39.5151 9.81774 39.07 9.83266 38.6405 9.40699C38.0902 8.86118 38.226 7.71468 38.9229 7.02367C39.4176 6.53317 39.7128 6.41821 40.4773 6.41821C40.9965 6.41821 41.4594 6.48802 41.506 6.57357ZM58.4099 6.70013C58.4437 6.85527 58.1489 7.64467 57.7549 8.45457L57.0386 9.92732L56.6789 9.34071C56.249 8.63976 55.3169 7.94875 54.5402 7.75549C52.5623 7.26333 50.4449 9.37343 50.4332 11.8483C50.4294 12.6483 50.5455 12.9571 51.0743 13.5543C51.7971 14.3706 53.0304 14.8068 54.011 14.5933C54.4689 14.4936 54.6237 14.5313 54.5955 14.736C54.5128 15.3357 54.6308 15.5341 55.2638 15.8585C55.8765 16.1727 55.9118 16.1719 55.7856 15.846C55.6985 15.6209 56.3555 14.1622 57.6354 11.7398C58.727 9.67357 59.6202 7.77599 59.6202 7.52308C59.6202 7.26996 59.4113 6.91803 59.1558 6.74072C58.5841 6.34344 58.3292 6.32956 58.4099 6.70013ZM10.7039 8.49414C9.06986 9.35003 8.57205 10.858 9.60611 11.8195C10.1094 12.2874 10.2834 12.3185 12.157 12.2746C14.4094 12.222 15.1242 12.4805 15.1242 13.3469C15.1242 13.9449 14.2312 14.7037 13.5274 14.7037C13.2546 14.7037 12.7319 14.4199 12.3659 14.0732C11.5543 13.3039 10.8704 13.3198 10.778 14.11C10.7003 14.7741 11.5621 15.5345 12.3845 15.5277C13.2097 15.5208 14.6383 14.8031 15.3373 14.0444C16.0641 13.2554 16.1589 12.3005 15.5807 11.5925C15.1522 11.0678 13.5968 10.7325 12.3997 10.9067C11.4497 11.045 9.98276 10.6548 9.81397 10.2188C9.6316 9.74752 10.2197 8.93658 10.8595 8.77729C11.2817 8.67228 11.5399 8.78454 12.0881 9.31129C12.9065 10.098 13.5276 10.0872 13.6216 9.28457C13.7532 8.16086 12.1629 7.73001 10.7039 8.49414ZM55.9655 8.98961C56.8272 9.84405 56.8084 10.3188 55.842 12.1269C54.8224 14.0342 54.5623 14.2894 53.6365 14.2894C52.3841 14.2894 51.4731 13.547 51.4731 12.5267C51.4731 11.8156 52.3816 9.92877 53.0549 9.24128C53.9841 8.29259 55.16 8.19089 55.9655 8.98961ZM4.32153 10.8615C4.22815 11.0266 3.17884 11.9121 1.98957 12.8293C0.800291 13.7463 -0.0915086 14.5069 0.0075106 14.5195C0.106739 14.5322 0.375804 14.5326 0.605595 14.5206C0.891581 14.5057 1.38605 14.9707 2.17236 15.9939C2.80428 16.8161 3.9148 18.2555 4.64011 19.1925C5.77925 20.6638 5.92777 20.954 5.72953 21.3213C5.60335 21.5549 5.57557 21.7463 5.66769 21.7463C5.76003 21.7463 6.79033 21.0006 7.95746 20.0892C9.12459 19.1778 10.2276 18.4321 10.4085 18.4321C10.5894 18.4321 10.7373 18.3605 10.7373 18.2731C10.7373 18.0939 9.72017 16.5679 9.60068 16.5679C9.55827 16.5679 9.57373 16.9387 9.63515 17.3919C9.73479 18.1283 9.67129 18.2859 9.04082 18.8707C8.05147 19.7879 7.45129 20.1483 7.18473 19.9848C7.05897 19.9078 6.39488 19.1391 5.70905 18.2766L4.46212 16.7086L5.14502 16.1172C5.67835 15.6557 5.97728 15.5465 6.50768 15.6199L7.18745 15.7135L6.62007 14.9761L6.05291 14.2387L5.90835 14.7747C5.76212 15.3168 4.75062 16.3479 4.36582 16.3473C4.02719 16.3467 1.95384 13.5197 2.07062 13.2179C2.24046 12.779 4.11785 11.5966 4.64491 11.5966C4.90875 11.5966 5.30629 11.6932 5.52856 11.811C6.11788 12.1238 6.02241 11.7594 5.34661 11.1175C4.67332 10.4779 4.55467 10.4483 4.32153 10.8615ZM60.1425 13.1406C58.9344 13.8698 58.3019 14.9131 58.2106 16.3283C58.122 17.6987 58.5684 18.5956 59.6706 19.2617C60.6777 19.8707 62.5448 19.7259 62.5448 19.0391C62.5448 18.9034 62.4053 18.9059 62.1408 19.0463C61.4583 19.4084 60.8688 19.2876 60.2308 18.6552C59.7326 18.1612 59.6202 17.8741 59.6202 17.0951C59.6202 16.57 59.7612 15.8059 59.9334 15.397L60.2467 14.6536L61.1345 15.3636C63.7847 17.4824 63.8125 17.4998 64.0335 17.1819C64.4231 16.6209 64.8428 15.549 64.8428 15.1142C64.8428 14.8771 64.6972 14.404 64.5192 14.0628C63.7726 12.6311 61.7076 12.1959 60.1425 13.1406ZM63.3339 13.3691C63.9315 13.784 63.9436 14.7321 63.3633 15.6631C63.1243 16.0468 62.8808 16.3608 62.8223 16.3608C62.7638 16.3608 62.205 15.9281 61.5806 15.399C60.5218 14.5021 60.4677 14.4124 60.7794 14.0711C61.1289 13.6881 62.2854 13.0594 62.6549 13.0514C62.7732 13.0487 63.0786 13.1918 63.3339 13.3691ZM118.948 17.2289C117.544 18.1714 117.391 20.3805 118.649 21.5527C119.108 21.9804 119.397 22.057 120.549 22.057C121.817 22.057 121.947 22.0125 122.512 21.3855C123.575 20.2061 123.579 18.7344 122.523 17.5626C122.04 17.0261 121.754 16.9035 120.811 16.8283C119.872 16.7535 119.555 16.8219 118.948 17.2289ZM174.819 17.0963C173.053 17.9603 173.02 20.9205 174.765 21.8804C175.444 22.254 176.956 22.2234 177.641 21.8217C178.854 21.1117 179.294 19.2553 178.547 18.0013C177.876 16.8757 176.134 16.4527 174.819 17.0963ZM95.39 17.191C94.7842 17.2796 93.7779 17.6001 93.1539 17.9029C91.0709 18.9133 90.124 20.5555 89.9577 23.4457L89.853 25.2677H88.3151C86.9167 25.2677 86.7774 25.3052 86.7774 25.6819C86.7774 26.0593 86.9167 26.0962 88.3442 26.0962H89.9109V35.3892V44.682L89.3603 45.2282C89.0573 45.5285 88.6523 45.7742 88.4601 45.7742C88.2679 45.7742 87.9318 45.9039 87.7131 46.0625C87.373 46.309 87.3563 46.3998 87.5978 46.6881C87.8447 46.983 88.4181 47.0183 92.1856 46.9694C96.4723 46.9137 96.4915 46.9114 96.5582 46.4474C96.6129 46.0648 96.5258 45.9813 96.0721 45.9813C95.7395 45.9813 95.2757 45.74 94.9085 45.3759L94.2979 44.7704V35.4333V26.0962H96.4913C98.5454 26.0962 98.6848 26.0699 98.6848 25.6819C98.6848 25.294 98.5454 25.2677 96.4913 25.2677H94.2979L94.2983 22.316C94.2985 19.9208 94.3674 19.2276 94.6638 18.6393C95.3658 17.2457 96.7708 17.6966 98.5517 19.8867C99.7435 21.3526 100.526 21.8528 101.319 21.6556C103.192 21.1893 101.552 18.0216 99.1233 17.4149C97.8638 17.1005 96.5471 17.0213 95.39 17.191ZM27.9397 18.6362C26.1419 19.1035 25.2472 19.5397 23.5613 20.7709C21.5707 22.2246 19.7176 24.8747 18.8168 27.5559C17.9417 30.1606 17.7426 34.322 18.3616 37.0745C19.9829 44.2853 26.5064 48.92 32.7848 47.3215C34.7311 46.8258 36.1558 46.0371 37.6799 44.6115C39.1366 43.249 40.1726 41.6163 40.6062 39.9998C41.0213 38.4525 40.5517 38.4967 39.5009 40.1036C37.667 42.9083 35.5765 44.2921 32.8848 44.4831C30.3101 44.6656 28.073 43.7177 26.1049 41.6099C22.379 37.6194 21.3004 29.4937 23.8074 24.3003C25.1223 21.5767 27.1862 20.0665 29.7983 19.9165C31.6504 19.81 32.5211 19.9902 33.3016 20.6415C34.2153 21.4037 34.6855 22.4452 35.0714 24.5607C35.5107 26.9705 35.7363 27.5 36.4869 27.885C37.7213 28.5178 39.1377 27.7835 39.5707 26.2862C41.0213 21.2703 34.4453 16.9451 27.9397 18.6362ZM130.518 21.0868C130.401 21.1647 130.08 21.6946 129.806 22.2642C129.136 23.6576 126.978 25.8398 126.098 26.0144C125.156 26.2012 125.159 26.8732 126.103 26.9635L126.782 27.0283L126.886 36.074L126.991 45.1199L127.492 45.6489C128.288 46.4878 129.677 46.9058 131.686 46.9099C133.209 46.913 133.467 46.8625 133.53 46.5503C133.572 46.338 133.444 46.1365 133.221 46.0648C132.007 45.675 131.641 45.4502 131.368 44.9268C131.117 44.445 131.064 42.8463 131.064 35.6349V26.9248H132.109C133.014 26.9248 133.153 26.8694 133.153 26.5105C133.153 26.1515 133.014 26.0962 132.109 26.0962H131.064V23.6228C131.064 21.2299 130.969 20.7871 130.518 21.0868ZM50.7087 25.0669C45.3155 26.027 42.0151 30.1921 42.0151 36.0388C42.0151 39.4101 42.9532 42.0041 44.9437 44.1357C46.2666 45.5528 47.4078 46.2804 49.1503 46.8182C54.3883 48.4347 59.8364 46.2908 62.0101 41.7576C62.9144 39.872 63.2403 38.2893 63.2307 35.8316C63.2102 30.6302 60.7015 26.759 56.5149 25.469C54.9461 24.9855 52.2247 24.7973 50.7087 25.0669ZM76.4065 25.057C74.4917 25.4586 72.2627 27.1126 71.1591 28.951L70.7511 29.6308L70.6132 28.4671C70.3256 26.0409 69.5491 25.3895 66.9318 25.3787C65.2468 25.3716 65.1528 25.3951 65.0893 25.8373C65.0406 26.178 65.1277 26.3033 65.4131 26.3033C66.2944 26.3033 66.3051 26.415 66.3051 35.6197C66.3051 45.5441 66.3782 45.0772 64.7139 45.7846C63.7224 46.2061 63.515 46.733 64.2683 46.9166C64.5269 46.9795 66.5714 47.0046 68.8119 46.9723C72.2487 46.9226 72.8855 46.8654 72.8855 46.6059C72.8855 46.4366 72.4629 46.0787 71.9462 45.8105C71.4296 45.5422 70.9375 45.2147 70.8526 45.0824C70.7678 44.9502 70.6993 41.6729 70.7004 37.7994L70.7024 30.7568L71.4294 29.7741C73.532 26.9326 76.5805 26.2315 78.438 28.1622C79.7491 29.5249 79.8837 30.4361 79.8837 37.9515C79.8837 41.5517 79.825 44.6492 79.7531 44.8348C79.6814 45.0202 79.1709 45.3989 78.619 45.6762C76.4063 46.7881 77.1301 47.0404 82.3301 46.9696C85.8975 46.9211 86.4672 46.8689 86.5221 46.5862C86.5633 46.3737 86.2842 46.1243 85.7262 45.8749C84.2259 45.204 84.2706 45.4587 84.2706 37.5681C84.2706 31.081 84.2357 30.3779 83.8538 29.1519C83.36 27.5667 82.1847 26.1269 80.8736 25.5011C79.8488 25.0123 77.6591 24.7944 76.4065 25.057ZM105.37 25.0875C102.561 25.5303 99.6489 27.7318 98.2584 30.4629C95.9755 34.947 96.8395 41.0084 100.252 44.4433C103.873 48.09 109.863 48.3725 113.209 45.0546C114.793 43.4837 115.684 41.0241 114.733 40.8446C114.488 40.7982 114.25 41.0759 113.94 41.7746C111.796 46.5905 105.381 45.6512 102.669 40.1243C101.99 38.7403 101.4 36.726 101.4 35.7881V35.2102H108.085H114.77L114.767 34.0192C114.758 31.1524 113.595 28.1968 111.892 26.7097C110.304 25.3242 107.807 24.7032 105.37 25.0875ZM117.207 25.4058C116.915 25.6954 117.075 26.3033 117.444 26.3033C118.309 26.3033 118.321 26.4384 118.321 35.638C118.321 44.2389 118.31 44.49 117.892 45.0163C117.657 45.3137 117.088 45.6686 116.629 45.8049C115.965 46.0023 115.808 46.1404 115.857 46.483C115.918 46.9035 116.022 46.9135 120.411 46.9135C124.713 46.9135 124.902 46.8967 124.902 46.5124C124.902 46.239 124.699 46.059 124.264 45.9472C123.913 45.8571 123.396 45.5408 123.115 45.2446L122.604 44.7058L122.5 35.8671C122.423 29.4048 122.326 26.9084 122.138 26.5824C121.702 25.8294 120.237 25.2677 118.708 25.2677C117.959 25.2677 117.284 25.3298 117.207 25.4058ZM142 25.4903C139.412 25.9286 137.156 27.3077 136.298 28.9744C134.944 31.606 136.174 33.8796 138.567 33.1687C139.668 32.8416 140.025 32.1989 140.285 30.0784C140.662 26.9985 141.245 26.2441 143.247 26.2441C145.978 26.2441 147.403 28.181 147.881 32.5446L148.009 33.7108L145.856 33.9676C140.029 34.6623 136.79 36.1403 135.351 38.7608C134.504 40.301 134.362 42.8298 135.024 44.5707C136.218 47.7126 139.389 48.2642 143.61 46.0644C144.385 45.6609 145.686 44.7735 146.502 44.0925L147.985 42.8542V44.0065C147.985 45.0181 148.068 45.2483 148.664 45.8919C149.39 46.6748 150.344 47.0036 151.916 47.0121C153.495 47.0208 154.173 46.3558 152.998 45.9499C152.632 45.8233 152.327 45.5472 152.268 45.2874C152.211 45.0426 152.141 41.6263 152.112 37.6959L152.059 30.5496L151.501 29.5009C149.957 26.6006 145.801 24.8463 142 25.4903ZM155.767 25.3926C155.324 25.591 155.478 26.0602 156.08 26.3466L156.655 26.6196L156.713 35.4201C156.745 40.2604 156.72 44.4297 156.657 44.6851C156.586 44.9776 156.164 45.3403 155.517 45.665C153.28 46.7892 153.99 47.0406 159.206 46.9696C162.806 46.9207 163.343 46.8708 163.399 46.58C163.441 46.3652 163.219 46.1508 162.775 45.977C162.396 45.8285 161.875 45.5196 161.616 45.2903C161.148 44.8754 161.146 44.8446 161.146 38.5874V32.3012L161.778 30.92C162.988 28.2745 164.804 26.5105 166.319 26.5105C166.97 26.5105 167.752 27.287 168.405 28.5818C169.066 29.8907 169.863 30.4117 170.738 30.1066C171.963 29.6793 172.003 27.8038 170.812 26.6225C169.785 25.604 169.123 25.375 167.204 25.3731C165.65 25.3714 165.309 25.4408 164.469 25.9305C163.433 26.5347 162.66 27.4264 161.739 29.0829L161.154 30.1354L161.15 28.8926C161.145 27.4757 160.708 26.4421 159.85 25.8182C159.426 25.5106 158.875 25.3907 157.656 25.3414C156.761 25.3052 155.911 25.3281 155.767 25.3926ZM172.793 25.3845C172.482 25.7002 172.646 26.0786 173.21 26.3466L173.785 26.6196L173.839 35.6868L173.894 44.7543L173.339 45.2642C173.033 45.5447 172.627 45.7742 172.436 45.7742C172.245 45.7742 171.91 45.9039 171.691 46.0625C171.351 46.309 171.335 46.3998 171.576 46.6881C171.823 46.983 172.396 47.0183 176.164 46.9694C180.451 46.9137 180.47 46.9114 180.536 46.4474C180.591 46.0648 180.504 45.9813 180.05 45.9813C179.718 45.9813 179.254 45.74 178.887 45.3759L178.276 44.7704L178.276 36.2101C178.276 28.4696 178.24 27.5818 177.91 26.9395C177.298 25.7482 176.63 25.4124 174.677 25.313C173.727 25.2648 172.879 25.2969 172.793 25.3845ZM189.035 25.4736C186.47 25.8719 184.171 27.3005 183.242 29.0732C182.645 30.2122 182.603 32.0858 183.162 32.6983C183.975 33.5906 186.046 33.4303 186.711 32.4234C186.888 32.1554 187.135 31.1216 187.26 30.1261C187.651 27.0028 188.245 26.2408 190.27 26.259C191.595 26.2708 192.391 26.636 193.28 27.6398C194.021 28.4758 194.686 30.4939 194.861 32.435L194.975 33.699L192.394 34.0405C184.751 35.0509 181.616 37.3767 181.62 42.0317C181.622 44.316 182.271 45.8042 183.676 46.7428C185.77 48.1424 189.576 47.185 193.157 44.3572C194.046 43.6554 194.822 43.0814 194.881 43.0814C194.94 43.0814 194.988 43.5098 194.988 44.0334C194.988 45.8138 195.954 46.7214 198.084 46.9422C199.678 47.1073 200.42 46.9327 200.42 46.3917C200.42 46.1659 200.302 45.9799 200.159 45.9782C199.281 45.9675 199.275 45.92 199.166 38.0662L199.062 30.5496L198.448 29.451C197.719 28.1454 196.64 27.1317 195.22 26.4185C193.54 25.5744 190.941 25.1774 189.035 25.4736ZM54.1504 26.0005C56.1188 26.5801 57.6029 28.4692 58.3888 31.396C58.9624 33.5318 59.0234 38.1203 58.5061 40.2333C57.8379 42.9638 56.4541 44.9637 54.7436 45.671C52.8662 46.4474 50.04 45.8448 48.7555 44.3941C47.0759 42.4973 46.3813 40.0868 46.3771 36.1423C46.373 32.0754 47.2054 29.2445 48.9249 27.4774C50.4996 25.859 52.1173 25.4019 54.1504 26.0005ZM107.981 26.7006C109.39 27.4801 110.383 30.1279 110.383 33.1041V34.3817H105.756H101.13L101.258 32.7764C101.53 29.3628 102.971 26.9473 105.056 26.4098C106.229 26.1074 107.058 26.19 107.981 26.7006ZM147.938 38.2388L147.995 41.7852L146.747 42.931C142.706 46.6407 138.963 45.7342 138.939 41.0401C138.926 38.4585 139.91 36.7522 142.028 35.6808C143.205 35.0857 145.538 34.5983 146.941 34.6547L147.881 34.6924L147.938 38.2388ZM194.941 38.2404L194.998 41.7883L193.824 42.8521C190.933 45.472 188.416 45.967 186.869 44.2201C185.394 42.5545 185.6 38.889 187.275 37.0026C188.584 35.5276 191.301 34.5737 193.944 34.6613L194.884 34.6924L194.941 38.2404ZM114.58 55.6542C114.072 56.1151 113.685 56.9656 112.7 59.7822C111.425 63.4281 111.39 63.7951 112.315 63.7951C112.975 63.7951 113.582 62.9715 115.475 59.5047C117.608 55.5999 117.669 55.2306 116.196 55.1364C115.368 55.0836 115.121 55.1629 114.58 55.6542ZM96.7351 58.1334C96.438 58.428 96.6219 58.7428 97.2225 58.9676L97.8492 59.202V64.5213V69.8404L96.7946 68.9002C95.1157 67.4036 93.8665 67.014 90.7465 67.014C87.5163 67.014 86.3368 67.4053 84.5098 69.0827C82.4005 71.019 81.3441 73.9119 81.3474 77.7433C81.3537 85.0194 85.9744 89.4492 92.2038 88.1511C94.1969 87.7358 95.8195 86.9466 96.9168 85.8583L97.7832 84.9995L98.0205 85.8794C98.3616 87.1442 99.2636 87.7641 101.023 87.9429C102.749 88.1181 103.49 87.9566 103.49 87.4048C103.49 87.1415 103.349 86.9944 103.097 86.9944C102.882 86.9944 102.602 86.8716 102.477 86.7214C102.318 86.5315 102.23 82.38 102.19 73.1022C102.134 60.3883 102.113 59.7284 101.735 59.1757C101.118 58.2732 100.361 57.9953 98.521 57.9953C97.6154 57.9953 96.8116 58.0574 96.7351 58.1334ZM165.046 58.1334C164.78 58.3967 164.91 58.6076 165.533 58.9274L166.16 59.2487V72.5096V85.7704L165.647 86.2788C165.365 86.5584 164.96 86.7873 164.747 86.7873C164.534 86.7873 164.177 86.9271 163.954 87.098C163.553 87.4056 163.553 87.4118 163.954 87.7194C164.499 88.1372 172.756 88.1848 172.901 87.7712C173.063 87.3103 172.812 86.9944 172.284 86.9944C171.992 86.9944 171.503 86.7314 171.157 86.389L170.547 85.7835V73.022C170.547 58.9491 170.57 59.2105 169.254 58.4149C168.711 58.0868 168.199 57.9967 166.874 57.9961C165.945 57.9957 165.122 58.0574 165.046 58.1334ZM24.8824 59.4744C22.3345 59.9587 19.9557 61.6682 19.076 63.6472C18.7117 64.4668 18.5974 65.1019 18.602 66.2807C18.6098 68.203 19.0955 69.3785 20.4968 70.8661C21.817 72.2674 23.1059 73.1115 27.2405 75.2821C31.0816 77.2986 32.6281 78.3736 33.5038 79.6355C35.5028 82.5165 34.2987 85.9908 30.903 87.1396C29.3485 87.6655 26.7542 87.6208 25.6539 87.0491C23.9234 86.1497 23.2582 84.9634 22.6257 81.6474C22.1703 79.2599 21.0671 78.3257 19.5636 79.0542C18.4238 79.6065 18.0008 80.5423 18.1111 82.2665C18.3054 85.2984 20.7201 87.4917 24.7772 88.322C29.0895 89.2044 33.6784 88.2184 36.0242 85.9051C37.3931 84.5552 37.9866 83.1009 37.9893 81.091C37.9914 79.6674 37.9008 79.2425 37.3457 78.0747C36.2009 75.6657 34.3031 74.1275 28.4005 70.8245C22.9472 67.7727 21.3119 65.6883 22.3192 63.073C23.1358 60.9526 26.0928 59.7932 28.7386 60.5557C30.659 61.1094 31.3711 62.1678 32.0361 65.4561C32.2744 66.6349 32.6362 67.8829 32.8403 68.2295C33.6329 69.5748 35.7052 69.3435 36.3392 67.8388C36.7998 66.7458 36.7273 64.7239 36.188 63.619C34.6419 60.4525 29.5528 58.5868 24.8824 59.4744ZM180.803 64.7164C179.745 65.0574 177.742 66.364 177.562 66.8309C177.294 67.5215 177.728 67.5016 178.526 66.7868C179.733 65.7053 181.286 65.0425 182.619 65.04C183.987 65.0375 185.306 65.656 185.616 66.4446C186.165 67.8419 185.343 70.8723 183.267 75.1118C182.59 76.4942 182.036 77.7294 182.036 77.8564C182.036 78.404 182.499 77.9496 184.182 75.751C187.499 71.4155 190.933 67.7539 192.883 66.473C194.803 65.2119 196.201 65.2059 195.896 66.4597C195.822 66.7601 195.077 68.6059 194.24 70.5614C193.402 72.517 192.57 74.6078 192.39 75.2077C191.785 77.2302 192.034 79.134 192.992 79.7933C193.516 80.1543 193.52 79.9012 193 79.2879C192.053 78.1727 192.142 77.8251 195.282 70.3914C195.698 69.4052 196.146 68.0714 196.276 67.427C196.491 66.3659 196.474 66.2033 196.095 65.6987C195.011 64.2535 192.883 65.1767 189.381 68.6112C188.423 69.551 187.021 71.0428 186.266 71.9265C185.511 72.8099 184.868 73.5071 184.836 73.4756C184.804 73.4439 185.054 72.6446 185.392 71.6988C186.173 69.509 186.384 67.4977 185.942 66.4498C185.271 64.8577 182.873 64.049 180.803 64.7164ZM153.417 66.1055C151.703 66.3827 149.801 67.3574 148.414 68.6697C143.955 72.8872 143.899 81.0266 148.299 85.4564C152.809 89.9979 160.462 89.1118 162.844 83.7722C163.321 82.7044 163.294 81.9546 162.777 81.8568C162.523 81.809 162.292 82.0903 161.964 82.8465C160.338 86.5938 155.512 86.9428 152.375 83.5402C150.836 81.8703 150.085 80.2896 149.561 77.6215L149.287 76.2233H156.052H162.817L162.814 75.0323C162.796 69.0232 158.806 65.2335 153.417 66.1055ZM46.9817 66.4866C44.4172 66.885 42.1183 68.3136 41.1891 70.0863C40.5918 71.2253 40.5505 73.0988 41.1088 73.7114C41.9806 74.6677 44.1085 74.4264 44.6934 73.305C44.867 72.9719 45.1051 71.9401 45.2225 71.012C45.6009 68.0207 46.2146 67.2541 48.2171 67.2721C49.5422 67.2839 50.3385 67.6491 51.2274 68.6529C51.9784 69.5009 52.6469 71.5493 52.7931 73.4502L52.8905 74.7164L50.325 75.0557C42.4086 76.1023 39.3319 78.5437 39.6096 83.5578C39.8688 88.2354 43.3224 89.7152 48.2351 87.2533C49.2539 86.7428 52.1875 84.6635 52.4238 84.2844C52.7081 83.8283 52.9354 84.1668 52.9354 85.0465C52.9354 87.0313 54.0096 87.8758 56.573 87.9064C58.173 87.9255 58.2659 87.9019 58.3292 87.4605C58.3693 87.1802 58.286 86.9932 58.1203 86.9913C57.2264 86.981 57.2229 86.9528 57.1134 79.0793L57.009 71.5627L56.3952 70.4641C55.6657 69.1585 54.5867 68.1448 53.1673 67.4316C51.4875 66.5875 48.8885 66.1904 46.9817 66.4866ZM59.4635 66.4056C58.9964 66.6146 59.1878 67.1259 59.8139 67.3421L60.4253 67.5536L60.4993 75.4615C60.5703 83.0644 60.591 83.4141 61.0385 84.5251C61.6639 86.0787 62.7216 87.2548 63.9737 87.789C67.299 89.2073 70.951 88.0566 73.1994 84.882L74.1963 83.4745L74.279 84.9268C74.3524 86.2154 74.4336 86.4503 75 87.0116C75.3507 87.3596 76.0056 87.7289 76.4552 87.8323C77.7374 88.1273 79.3779 88.0742 79.6672 87.7285C79.9534 87.3863 79.7917 86.9944 79.3639 86.9944C79.2066 86.9944 78.9302 86.848 78.7495 86.669C78.4612 86.3829 78.4213 85.2476 78.4213 77.328C78.4213 67.1582 78.4679 67.4695 76.8249 66.6807C76.1512 66.3574 75.6225 66.2751 74.5224 66.3226C73.2226 66.3787 73.0883 66.4261 73.0275 66.8504C72.9772 67.2027 73.0647 67.3164 73.3858 67.3164C73.6195 67.3164 73.908 67.4966 74.0271 67.717C74.1639 67.9708 74.2433 70.6971 74.2433 75.1452V82.1725L73.7004 82.978C71.3841 86.4146 67.6606 87.2622 65.9823 84.7354C64.9802 83.2268 64.8428 82.0519 64.8419 74.9888C64.8413 68.8786 64.8148 68.4128 64.4341 67.7937C63.7818 66.7329 63.1176 66.4249 61.3261 66.353C60.4454 66.3176 59.6073 66.3412 59.4635 66.4056ZM112.385 66.5061C108.854 67.0281 106.222 69.4541 106.21 72.1968C106.205 73.4075 106.645 74.0328 107.658 74.2534C109.426 74.6385 110.342 73.801 110.643 71.5254C111.072 68.28 111.406 67.6249 112.784 67.3166C113.798 67.0902 115.218 67.3695 116.054 67.9592C116.381 68.1901 116.887 68.7819 117.178 69.2743C118.064 70.7746 118.705 74.7678 118.06 74.7771C117.404 74.7866 113.388 75.4155 112.119 75.7071C110.193 76.15 107.905 77.2791 106.886 78.2901C105.529 79.6355 105.09 80.7635 105.072 82.9552C105.058 84.603 105.125 84.9589 105.651 86.0211C106.506 87.7465 107.473 88.3408 109.428 88.3408C110.325 88.3408 111.39 88.1834 112.139 87.9398C113.538 87.4851 115.985 85.9697 117.382 84.6935L118.321 83.8345V84.6962C118.321 85.8527 118.766 86.8378 119.533 87.3791C120.324 87.9377 123.136 88.2445 123.643 87.8275C124.078 87.4698 124.045 86.9944 123.586 86.9944C122.736 86.9944 122.708 86.7655 122.708 79.6373C122.708 72.0636 122.64 71.5377 121.42 69.7109C119.853 67.3649 115.947 65.9794 112.385 66.5061ZM124.058 66.5017C123.863 66.8139 124.117 66.9947 125.164 67.2901C125.653 67.4279 126.188 67.7466 126.353 67.9981C126.518 68.2498 128.118 72.4638 129.907 77.3626C131.696 82.2613 133.307 86.6657 133.487 87.1498L133.815 88.0301H135.224H136.633L140.293 78.043C144.21 67.3531 144.164 67.4459 145.713 67.1319C146.126 67.048 146.419 66.8634 146.419 66.6865C146.419 66.4394 145.985 66.3843 144.034 66.3843C141.444 66.3843 140.881 66.6362 142.226 67.1936C142.689 67.3854 142.972 67.6437 142.972 67.8755C142.973 68.2962 137.376 83.6885 137.125 83.9559C137.036 84.0506 136.774 83.5845 136.543 82.9202C136.312 82.256 134.988 78.6468 133.602 74.8999C131.717 69.8066 131.13 67.9958 131.277 67.7239C131.385 67.5238 131.766 67.2588 132.123 67.1354C132.495 67.007 132.735 66.7978 132.685 66.6476C132.566 66.294 124.275 66.1538 124.058 66.5017ZM211.41 67.9996C210.823 68.6214 209.637 70.2762 208.776 71.6771C207.178 74.2739 205.885 75.809 205.296 75.809C205.06 75.809 204.994 75.6663 205.064 75.3047C205.242 74.3829 204.866 74.1853 204.293 74.8999C203.595 75.7718 202.718 76.3472 202.718 75.9333C202.718 75.4948 203.747 74.3545 204.347 74.1281C204.742 73.9796 204.958 74.0161 205.254 74.2818C205.617 74.6074 205.642 74.6076 205.642 74.2833C205.642 73.8261 204.766 73.4437 204.1 73.6094C203.809 73.6819 203.308 73.9871 202.988 74.2874C202.212 75.0138 200.01 76.4304 199.656 76.4304C199.195 76.4304 199.327 75.9851 200.273 74.3541C201.87 71.5986 201.43 71.8734 204.248 71.8734C206.134 71.8734 206.701 71.8119 206.635 71.6145C206.577 71.4393 205.858 71.322 204.414 71.252L202.279 71.1485L203.434 69.4914C204.07 68.58 204.591 67.71 204.594 67.5581C204.603 66.9587 204.017 67.53 202.759 69.3489L201.442 71.252H198.633C196.083 71.252 195.406 71.3856 196.026 71.7659C196.137 71.8341 197.31 71.8966 198.632 71.9051C200.949 71.9196 201.028 71.9347 200.818 72.3244C200.632 72.6686 200.547 72.6883 200.248 72.4565C199.936 72.2142 199.928 72.2227 200.174 72.5348C200.411 72.8345 200.369 73.0247 199.888 73.8394C199.012 75.3208 197.119 76.4373 197.406 75.303C197.662 74.2909 197.263 74.2936 196.222 75.3107C195.663 75.8558 195.16 76.2554 195.103 76.1985C195.045 76.1415 195.168 75.7742 195.376 75.3823C195.841 74.5084 196.968 73.8725 197.528 74.1693C197.961 74.3993 198.044 74.1577 197.662 73.7791C197.151 73.2718 196.226 73.4968 195.381 74.3346C194.5 75.2085 194.3 76.1568 194.893 76.6448C195.16 76.865 195.324 76.8296 195.861 76.4358C196.442 76.0104 196.527 75.9965 196.699 76.2997C196.935 76.7194 197.496 76.7337 198.03 76.3335C198.6 75.906 198.749 75.9431 198.749 76.5119C198.749 77.4382 199.661 77.3706 201.206 76.33L201.976 75.8111L202.249 76.3279C202.579 76.9526 202.79 76.9694 203.551 76.4317C204.048 76.0814 204.154 76.0657 204.256 76.3281C204.393 76.6817 205.071 76.7337 205.636 76.434C206.004 76.2386 206.006 76.2716 205.691 77.2501C205.42 78.089 205.41 78.3274 205.632 78.593C206.248 79.3289 207.354 78.9074 209.745 77.0258C211.147 75.923 211.283 75.8619 211.283 76.3333C211.283 76.8694 211.868 76.9102 212.686 76.4311L213.467 75.9745L213.758 76.4097C214.121 76.9522 214.302 76.953 215.064 76.4157C215.595 76.041 215.687 76.0278 215.797 76.3122C216.071 77.0191 217.091 76.6287 218.639 75.2243C219.557 74.3912 219.068 74.2833 217.976 75.0781C216.725 75.9882 216.412 76.0145 216.577 75.1957C216.76 74.2872 216.387 74.2416 215.644 75.0816C215.282 75.4905 214.802 75.9225 214.577 76.0419C214.212 76.2353 214.184 76.2065 214.317 75.7751C214.638 74.7309 216.112 73.7426 216.667 74.1992C216.813 74.3195 217.001 74.3506 217.084 74.2681C217.298 74.0564 216.511 73.5291 215.995 73.5378C215.372 73.5485 214.824 73.9214 213.811 75.0244C211.925 77.0786 211.044 76.3176 212.847 74.1923C213.227 73.7451 213.31 73.5173 213.134 73.4094C212.984 73.3174 212.649 73.5363 212.287 73.9634C210.619 75.9319 207.911 78.1416 206.843 78.4051C206.336 78.5302 206.269 78.4883 206.269 78.0474C206.269 77.2907 207.874 74.1596 208.517 73.6598C211.759 71.1429 213.879 68.6904 213.754 67.6017C213.698 67.1182 213.571 66.9929 213.082 66.9374C212.58 66.8806 212.299 67.0594 211.41 67.9996ZM155.977 67.6625C157.308 68.3264 158.431 71.1743 158.431 73.8885V75.3948H153.835H149.239V74.3692C149.239 72.077 150.138 69.5962 151.413 68.3712C152.61 67.2199 154.501 66.9264 155.977 67.6625ZM213.372 67.5339C213.372 68.0362 212.6 69.1591 211.407 70.3922C210.115 71.7289 208.755 72.8341 209.089 72.2767C210.012 70.7352 211.853 68.1564 212.297 67.7835C212.885 67.2887 213.372 67.1756 213.372 67.5339ZM94.5067 68.5909C95.56 69.0446 96.3624 69.726 97.2494 70.9206L97.8492 71.7284V77.4141C97.8492 83.7691 97.8065 83.9984 96.4119 85.1445C94.5776 86.6516 91.6364 87.3861 89.8182 86.791C88.261 86.2815 87.0239 84.7209 86.2192 82.2508C85.7883 80.9284 85.6195 76.4613 85.9311 74.6292C86.3734 72.0292 87.9096 69.4914 89.5612 68.6322C91.0022 67.8827 92.8265 67.8674 94.5067 68.5909ZM213.826 71.7313C213.303 72.2836 213.237 72.702 213.673 72.702C214.006 72.702 214.625 71.9316 214.625 71.5165C214.625 71.1182 214.332 71.1969 213.826 71.7313ZM52.888 79.2535L52.945 82.8013L51.7712 83.8652C48.4342 86.8892 45.449 87.0617 44.22 84.3016C43.7749 83.3018 43.7882 80.509 44.243 79.4812C44.7456 78.3456 45.9096 77.1594 47.04 76.6305C48.2082 76.0841 50.5725 75.6147 51.8909 75.6678L52.8309 75.7055L52.888 79.2535ZM118.321 79.3229V83.0437L117.051 84.092C113.838 86.7434 111.113 86.9412 109.881 84.6123C109.529 83.947 109.444 83.4165 109.447 81.9196C109.451 80.2979 109.525 79.9155 110.019 78.9807C110.909 77.2952 112.384 76.3774 114.979 75.8944C115.726 75.7554 116.784 75.6328 117.329 75.6218L118.321 75.6019V79.3229ZM208.567 80.4566C203.174 81.5904 198.475 85.1671 197.466 88.9055C197.329 89.4142 197.288 90.0078 197.376 90.2249C197.5 90.5331 197.637 90.3206 198.005 89.2532C198.594 87.5421 199.419 86.3434 200.998 84.9073C205.443 80.865 212.074 79.6125 216.401 81.9979C218.957 83.407 218.531 85.8556 215.46 87.4089C214.731 87.7776 214.395 87.8101 212.542 87.6896C211.39 87.6148 210.447 87.5226 210.447 87.4847C210.447 87.447 210.829 86.7962 211.297 86.0389C211.899 85.0629 212.082 84.5974 211.924 84.4406C211.637 84.1562 210.222 85.4697 210.379 85.8748C210.439 86.0292 210.285 86.4807 210.037 86.8786C209.708 87.4066 209.388 87.6386 208.851 87.7385C207.988 87.899 207.71 88.3864 208.255 88.7816C208.567 89.0082 208.596 89.148 208.413 89.547C208.199 90.012 208.11 90.0308 206.55 89.9445C204.321 89.821 202.825 90.3676 201.308 91.8599C200.347 92.8044 200.211 93.0418 200.211 93.7705C200.211 94.7672 200.761 95.5446 201.85 96.0848C204.281 97.2918 208.835 97.3065 212.573 96.1194C218.109 94.361 219.783 91.1786 216.412 88.822L215.481 88.1716L216.499 87.5311C218.4 86.3357 219.006 84.9139 218.27 83.3753C217.172 81.0827 212.407 79.6491 208.567 80.4566ZM212.624 88.2107C212.686 88.3102 212.386 88.4489 211.957 88.5192C210.899 88.6927 208.463 88.6857 208.64 88.5096C209.002 88.1509 212.427 87.894 212.624 88.2107ZM221.743 88.783C221.241 89.4156 221.195 89.6872 221.591 89.6872C221.969 89.6872 222.563 89.0126 222.563 88.5834C222.563 88.0798 222.238 88.1589 221.743 88.783ZM229.289 88.8477C228.986 89.2539 228.911 89.5049 229.063 89.5981C229.362 89.7817 230.387 88.763 230.202 88.4659C229.978 88.1074 229.779 88.1904 229.289 88.8477ZM215.774 88.834C216.737 89.2725 217.217 89.7512 217.541 90.5978C218.261 92.4751 215.533 94.7592 211.178 95.9249C208.909 96.5325 204.646 96.5938 202.853 96.0446C201.245 95.5521 200.535 94.8642 200.715 93.9724C201.046 92.3296 203.567 90.6102 205.956 90.3983C207.593 90.2531 207.913 90.4571 207.4 91.3186C207.121 91.7861 207.08 92.0239 207.247 92.1894C207.414 92.3549 207.611 92.1936 207.969 91.5978C208.37 90.9321 208.541 90.8078 208.88 90.9344C209.385 91.1225 210.144 91.8164 210.915 92.7943C211.23 93.193 211.488 93.4161 211.489 93.2901C211.492 93.0196 210.077 91.1403 209.863 91.1303C209.782 91.1264 209.497 90.9429 209.23 90.722C208.763 90.3362 208.758 90.2989 209.091 89.7452C209.411 89.2106 209.543 89.1656 210.934 89.1176C211.758 89.089 212.902 88.9376 213.476 88.7808C214.869 88.4007 214.82 88.3994 215.774 88.834ZM220.334 90.7747C219.531 91.6633 219.221 92.2683 219.221 92.9504C219.221 93.8397 219.644 93.9903 220.589 93.4372C221.477 92.9177 221.519 92.9121 221.519 93.3121C221.519 93.8463 221.934 93.6586 223.157 92.5714C223.807 91.9931 224.511 91.4267 224.72 91.3128C225.061 91.128 225.076 91.1531 224.864 91.546C224.547 92.1341 224.673 93.0109 225.114 93.2848C225.391 93.4567 225.613 93.402 226.106 93.0405C226.706 92.6006 226.741 92.5966 226.741 92.9699C226.741 93.1872 226.885 93.4832 227.061 93.628C227.488 93.9797 228.132 93.681 229.357 92.5614C230.469 91.5444 230.449 91.1904 229.334 92.1612C228.492 92.8943 227.642 93.3425 227.452 93.1543C227.237 92.9405 227.594 92.1675 228.253 91.4236C228.72 90.896 228.83 90.6398 228.661 90.4725C228.492 90.3049 228.104 90.5773 227.22 91.4837C226.123 92.6082 225.07 93.2439 225.07 92.7818C225.07 92.6824 225.224 92.2801 225.413 91.888C226.058 90.5476 225.315 90.0903 224.026 91.0336C223.178 91.6533 223.203 91.6488 223.332 91.1606C223.519 90.454 223.026 90.4986 222.57 91.2293C222.101 91.9829 220.583 93.2085 220.12 93.2085C219.634 93.2085 219.831 92.4612 220.569 91.5026C221.214 90.6655 221.311 90.3086 220.894 90.3086C220.818 90.3086 220.566 90.5182 220.334 90.7747Z" fill="#FE7A80"></path><path d="M69.8555 10.9604H225.052C226.273 10.9604 227.263 11.9501 227.263 13.1709V69.5911" stroke="#623937" stroke-width="0.831284" stroke-linecap="round"></path><path d="M160.311 94.3643H5.21828C3.99749 94.3643 3.00785 93.3746 3.00785 92.1538V27.4757" stroke="#623937" stroke-width="0.831284" stroke-linecap="round"></path></svg>