<svg xmlns="http://www.w3.org/2000/svg" width="44" height="48" viewBox="0 0 44 48" fill="none"><rect width="44" height="48" rx="6" fill="#FE7A80"></rect><path d="M14.5387 34C19.2428 34 22.0774 30.1462 22.0774 24.5C22.0774 18.8538 19.2428 15 14.5387 15C9.83454 15 7 18.8239 7 24.5C7 30.1761 9.83454 34 14.5387 34ZM14.5387 32.2374C11.7644 32.2374 10.4678 29.3695 10.4678 24.5C10.4678 19.6305 11.7644 16.7626 14.5387 16.7626C17.2828 16.7626 18.5794 19.6006 18.5794 24.5C18.5794 29.3994 17.2828 32.2374 14.5387 32.2374Z" fill="white"></path><path d="M34.8338 33.8208C36.9747 33.8208 38 32.7752 38 31.3113C38 30.5645 37.6683 29.7579 37.1255 29.7579C36.432 29.7579 36.6129 30.9528 34.4116 30.9528L27.3252 30.9827C27.1443 30.9827 27.0538 30.8931 27.0538 30.8333C27.0538 30.7138 27.084 30.6541 27.2348 30.445C28.441 28.1447 37.3064 25.695 37.3064 20.4371C37.3064 17.2107 34.8941 15.0299 30.8835 15.0299C26.5412 15.0299 24.2796 17.9874 24.2796 18.9434C24.2796 19.7201 25.2144 20.8852 25.8476 20.8852C27.1443 20.8852 27.5363 16.8821 30.7629 16.8821C32.3008 16.8821 33.8386 17.8082 33.8386 20.1981C33.8386 25.2767 24.0987 27.1289 24.0987 32.3569C24.0987 33.2531 24.6415 33.6116 25.1842 33.6116C25.9984 33.6116 26.6015 33.1934 27.6268 33.1934C28.8631 33.1934 32.8737 33.8208 34.8338 33.8208Z" fill="white"></path></svg>