<svg xmlns="http://www.w3.org/2000/svg" width="102" height="102" viewBox="0 0 102 102" fill="none"><circle cx="51" cy="51" r="51" fill="white"></circle><path d="M32.5353 68.28H40.4553L54.0393 33.528H45.7833L36.5193 59.4L27.2553 33.528H18.9993L32.5353 68.28Z" fill="#623937"></path><path d="M69.4454 68.76C77.6534 68.76 82.9814 64.632 82.9814 58.344C82.9814 45.144 63.3494 50.424 63.3494 43.032C63.3494 40.632 65.4134 39.144 68.8214 39.144C72.2774 39.144 74.4854 40.584 75.5894 43.368L82.5494 42.408C81.2054 36.216 76.1174 33 68.5814 33C61.1414 33 55.9574 37.08 55.9574 43.176C55.9574 56.232 75.2534 51.768 75.3494 58.584C75.3974 61.176 73.1414 62.712 69.3974 62.712C65.6534 62.712 63.0134 61.032 61.9574 57.912L54.7094 58.872C56.1974 65.208 61.7654 68.76 69.4454 68.76Z" fill="#623937"></path></svg>